<svg width="19" height="21" viewBox="0 0 19 21" fill="none" xmlns="http://www.w3.org/2000/svg">
<path d="M6.41771 6.43349C7.39818 6.30695 8.39785 6.2417 9.41268 6.2417C10.4274 6.2417 11.427 6.30693 12.4074 6.43345C13.3158 6.55069 13.9629 7.30786 14.0168 8.18431C13.8628 8.13319 13.6996 8.09928 13.5289 8.0852C12.8727 8.03106 12.2091 8.00346 11.5392 8.00346C10.8694 8.00346 10.2058 8.03106 9.54959 8.0852C8.43506 8.17715 7.64029 9.11439 7.64029 10.1684V12.1817C7.64029 12.976 8.09147 13.7034 8.79003 14.0535L7.53647 15.2997C7.4351 15.4004 7.28265 15.4306 7.1502 15.376C7.01775 15.3215 6.93139 15.193 6.93139 15.0505V13.1575C6.75959 13.1392 6.58836 13.119 6.41771 13.097C5.46853 12.9745 4.80469 12.1534 4.80469 11.2276V8.30291C4.80469 7.37708 5.46853 6.55599 6.41771 6.43349Z" fill="white"/>
<path d="M11.5392 8.70817C10.889 8.70817 10.245 8.73495 9.60822 8.78749C8.88075 8.84751 8.34919 9.46117 8.34919 10.1684V12.1817C8.34919 12.8901 8.88227 13.5041 9.61066 13.5632C10.1985 13.6109 10.7926 13.637 11.392 13.6406L12.7064 14.9473C12.8078 15.0481 12.9602 15.0782 13.0927 15.0237C13.2251 14.9692 13.3115 14.8407 13.3115 14.6982V13.5754C13.3636 13.5715 13.4157 13.5674 13.4678 13.5632C14.1962 13.5041 14.7293 12.8901 14.7293 12.1818V10.1684C14.7293 9.46118 14.1977 8.84751 13.4703 8.78749C12.8335 8.73495 12.1895 8.70817 11.5392 8.70817Z" fill="white"/>
<path d="M1 10.0721C1.00112 6.63662 3.29141 2.43774 8.2526 2.43774" stroke="white" stroke-width="1.5" stroke-linecap="round"/>
<path d="M7.49109 4.34657L8.63624 2.438L7.10938 0.911133" stroke="white" stroke-width="1.5" stroke-linecap="round"/>
<path d="M18.1523 10.4279C18.1512 13.8634 15.8609 18.0623 10.8997 18.0623" stroke="white" stroke-width="1.5" stroke-linecap="round"/>
<path d="M11.6613 16.1534L10.5161 18.062L12.043 19.5889" stroke="white" stroke-width="1.5" stroke-linecap="round"/>
</svg>
