<svg width="19" height="21" viewBox="0 0 19 21" fill="none" xmlns="http://www.w3.org/2000/svg">
<path d="M6.41819 6.43398C7.39867 6.30743 8.39834 6.24219 9.41316 6.24219C10.4279 6.24219 11.4275 6.30742 12.4078 6.43394C13.3163 6.55117 13.9634 7.30834 14.0172 8.1848C13.8633 8.13368 13.7001 8.09977 13.5294 8.08569C12.8732 8.03154 12.2096 8.00395 11.5397 8.00395C10.8699 8.00395 10.2063 8.03154 9.55007 8.08569C8.43555 8.17764 7.64078 9.11488 7.64078 10.1689V12.1822C7.64078 12.9765 8.09196 13.7039 8.79052 14.054L7.53696 15.3001C7.43559 15.4009 7.28313 15.4311 7.15069 15.3765C7.01824 15.322 6.93188 15.1935 6.93188 15.051V13.1579C6.76008 13.1397 6.58885 13.1195 6.4182 13.0975C5.46902 12.975 4.80518 12.1539 4.80518 11.228V8.30339C4.80518 7.37757 5.46902 6.55648 6.41819 6.43398Z" fill="#7F70C5"/>
<path d="M11.5397 8.70865C10.8895 8.70865 10.2455 8.73544 9.60871 8.78798C8.88124 8.848 8.34968 9.46166 8.34968 10.1689V12.1822C8.34968 12.8906 8.88276 13.5046 9.61115 13.5637C10.199 13.6114 10.793 13.6375 11.3925 13.6411L12.7069 14.9478C12.8083 15.0486 12.9607 15.0787 13.0932 15.0242C13.2256 14.9696 13.312 14.8412 13.312 14.6986V13.5759C13.3641 13.572 13.4162 13.5679 13.4683 13.5637C14.1967 13.5046 14.7298 12.8906 14.7298 12.1823V10.1689C14.7298 9.46167 14.1982 8.848 13.4708 8.78798C12.834 8.73544 12.19 8.70865 11.5397 8.70865Z" fill="#7F70C5"/>
<path d="M1 10.0718C1.00112 6.63637 3.29141 2.4375 8.2526 2.4375" stroke="#7F70C5" stroke-width="1.5" stroke-linecap="round"/>
<path d="M7.49036 4.3456L8.63551 2.43702L7.10864 0.910156" stroke="#7F70C5" stroke-width="1.5" stroke-linecap="round"/>
<path d="M18.1533 10.4282C18.1522 13.8636 15.8619 18.0625 10.9007 18.0625" stroke="#7F70C5" stroke-width="1.5" stroke-linecap="round"/>
<path d="M11.663 16.1544L10.5178 18.063L12.0447 19.5898" stroke="#7F70C5" stroke-width="1.5" stroke-linecap="round"/>
</svg>
