<svg width="21" height="20" viewBox="0 0 21 20" fill="none" xmlns="http://www.w3.org/2000/svg">
<path fill-rule="evenodd" clip-rule="evenodd" d="M6.5 7.46094C4.88516 7.46094 3.30014 7.59025 1.75483 7.83919C0.717446 8.00631 0 8.91495 0 9.93519V13.6534C0 14.6736 0.71745 15.5822 1.75483 15.7493C2.36754 15.8481 2.98651 15.928 3.61111 15.9884V18.4748C3.61111 18.6939 3.74308 18.8914 3.94549 18.9753C4.1479 19.0591 4.38088 19.0128 4.53579 18.8578L7.12068 16.273C7.21879 16.1748 7.35451 16.1159 7.50167 16.111C8.77117 16.0688 10.0206 15.9466 11.2452 15.7493C12.2826 15.5822 13 14.6736 13 13.6534V9.93519C13 8.91495 12.2826 8.00631 11.2452 7.83919C9.69986 7.59025 8.11484 7.46094 6.5 7.46094ZM6.50005 12.5148C6.89893 12.5148 7.22228 12.1914 7.22228 11.7925C7.22228 11.3937 6.89893 11.0703 6.50005 11.0703C6.10118 11.0703 5.77783 11.3937 5.77783 11.7925C5.77783 12.1914 6.10118 12.5148 6.50005 12.5148ZM5.05577 11.7925C5.05577 12.1914 4.73242 12.5148 4.33355 12.5148C3.93468 12.5148 3.61133 12.1914 3.61133 11.7925C3.61133 11.3937 3.93468 11.0703 4.33355 11.0703C4.73242 11.0703 5.05577 11.3937 5.05577 11.7925ZM8.66656 12.5148C9.06543 12.5148 9.38878 12.1914 9.38878 11.7925C9.38878 11.3937 9.06543 11.0703 8.66656 11.0703C8.26769 11.0703 7.94434 11.3937 7.94434 11.7925C7.94434 12.1914 8.26769 12.5148 8.66656 12.5148Z" fill="#7F70C5"/>
<path d="M15.0965 1.05653C14.5952 0.91146 14.0761 1.15534 13.8445 1.60793L13.5139 2.25401C13.2241 2.29986 12.9408 2.37436 12.6676 2.47519L12.1049 2.07541C11.6788 1.77262 11.1069 1.8314 10.7417 2.19212L9.76184 3.16006C9.40077 3.51673 9.32731 4.08194 9.59565 4.51745L9.97054 5.12589C9.91459 5.26701 9.86489 5.41205 9.82187 5.56073C9.77884 5.70942 9.7434 5.85859 9.71534 6.00778L9.07346 6.32199C8.61401 6.5469 8.37427 7.06399 8.48907 7.55837L8.8006 8.90001L9.28764 8.78692L8.8006 8.90001C8.91669 9.4 9.36882 9.75511 9.89083 9.7267L10.5801 9.68919C10.7571 9.9203 10.9569 10.1346 11.1774 10.3281L11.1119 11.0509C11.0661 11.5573 11.3747 12.0407 11.876 12.1857L13.1674 12.5594C13.6687 12.7045 14.1878 12.4606 14.4194 12.008L14.75 11.3619C15.0398 11.3161 15.3231 11.2416 15.5963 11.1408L16.159 11.5405C16.5851 11.8433 17.157 11.7846 17.5222 11.4238L18.5021 10.4559C18.8631 10.0992 18.9366 9.53401 18.6683 9.0985L18.2934 8.49006C18.3493 8.34894 18.399 8.2039 18.442 8.05522C18.4851 7.90653 18.5205 7.75737 18.5486 7.60817L19.1905 7.29396C19.6499 7.06905 19.8896 6.55196 19.7748 6.05758L19.2878 6.17068L19.7748 6.05758L19.4633 4.71594C19.3472 4.21595 18.8951 3.86085 18.3731 3.88926L17.6838 3.92677C17.5068 3.69565 17.307 3.48136 17.0865 3.28784L17.152 2.56502C17.1978 2.05869 16.8892 1.5753 16.3879 1.43023L15.0965 1.05653ZM15.293 7.14396C15.0947 7.82931 14.4074 8.20384 13.7805 8.02245C13.1537 7.84106 12.7726 7.15735 12.9709 6.472C13.1692 5.78664 13.8566 5.41211 14.4834 5.5935C15.1102 5.7749 15.4913 6.4586 15.293 7.14396Z" fill="#7F70C5" stroke="white"/>
</svg>
