<svg width="21" height="21" viewBox="0 0 21 21" fill="none" xmlns="http://www.w3.org/2000/svg">
<mask id="mask0_220_2597" style="mask-type:alpha" maskUnits="userSpaceOnUse" x="0" y="0" width="21" height="21">
<circle cx="10.5" cy="10.5" r="10.5" fill="white"/>
</mask>
<g mask="url(#mask0_220_2597)">
<path d="M1.31225 1.42968C-0.338003 3.14381 -0.000252895 4.96468 -0.000252895 10.4964C-0.000252895 15.0902 -0.801753 19.6953 3.393 20.7794C4.70287 21.1163 16.3089 21.1163 17.617 20.7777C19.3635 20.3271 20.7845 18.9104 20.9787 16.4403C21.0059 16.0956 21.0059 4.90343 20.9779 4.55168C20.7714 1.92056 19.1517 0.404182 17.0176 0.0970574C16.5285 0.0261824 16.4305 0.00518235 13.921 0.000807352C5.01962 0.00518235 3.06837 -0.391193 1.31225 1.42968Z" fill="url(#paint0_linear_220_2597)"/>
<path d="M10.4981 2.74729C7.32096 2.74729 4.30396 2.46466 3.15159 5.42216C2.67559 6.64366 2.74471 8.23004 2.74471 10.5015C2.74471 12.4948 2.68084 14.3682 3.15159 15.58C4.30134 18.5393 7.34284 18.2558 10.4963 18.2558C13.5387 18.2558 16.6756 18.5725 17.842 15.58C18.3188 14.3463 18.2488 12.7835 18.2488 10.5015C18.2488 7.47229 18.416 5.51666 16.9468 4.04841C15.4593 2.56091 13.4477 2.74729 10.4946 2.74729H10.4981ZM9.80334 4.14466C16.4306 4.13416 17.2741 3.39741 16.8086 13.6323C16.6432 17.2522 13.887 16.8549 10.499 16.8549C4.32146 16.8549 4.14384 16.6782 4.14384 10.498C4.14384 4.24616 4.63384 4.14816 9.80334 4.14291V4.14466ZM14.6368 5.43179C14.1232 5.43179 13.7067 5.84829 13.7067 6.36191C13.7067 6.87554 14.1232 7.29204 14.6368 7.29204C15.1505 7.29204 15.567 6.87554 15.567 6.36191C15.567 5.84829 15.1505 5.43179 14.6368 5.43179ZM10.4981 6.51941C8.29921 6.51941 6.51684 8.30266 6.51684 10.5015C6.51684 12.7004 8.29921 14.4828 10.4981 14.4828C12.697 14.4828 14.4785 12.7004 14.4785 10.5015C14.4785 8.30266 12.697 6.51941 10.4981 6.51941ZM10.4981 7.91679C13.915 7.91679 13.9193 13.0863 10.4981 13.0863C7.08209 13.0863 7.07684 7.91679 10.4981 7.91679Z" fill="white"/>
</g>
<defs>
<linearGradient id="paint0_linear_220_2597" x1="1.35251" y1="19.6595" x2="20.8698" y2="2.76754" gradientUnits="userSpaceOnUse">
<stop stop-color="#FFDD55"/>
<stop offset="0.5" stop-color="#FF543E"/>
<stop offset="1" stop-color="#C837AB"/>
</linearGradient>
</defs>
</svg>
