<svg width="21" height="21" viewBox="0 0 21 21" fill="none" xmlns="http://www.w3.org/2000/svg">
<path d="M19.2171 16.0886C20.3829 14.3871 21 12.3964 21 10.3286C21 4.63286 16.29 0 10.5 0C4.71 0 0 4.63286 0 10.3286C0 16.0243 4.71 20.6571 10.5 20.6571C12.345 20.6571 14.1579 20.1793 15.7479 19.2771C19.1164 20.5543 19.5557 20.355 19.8193 20.235L19.9221 20.19L20.0079 20.1193C20.1964 19.9607 20.3914 19.7979 20.3121 19.2193C20.2329 18.6471 19.8836 17.6507 19.2171 16.0886ZM16.125 17.8607L15.7307 17.7086L15.3729 17.9314C13.9157 18.8357 12.2293 19.3157 10.4979 19.3157C5.46214 19.3157 1.36286 15.285 1.36286 10.3286C1.36286 5.37214 5.46214 1.34143 10.5 1.34143C15.5379 1.34143 19.6371 5.37214 19.6371 10.3286C19.6371 12.2679 19.0179 14.115 17.85 15.6686L17.565 16.0479L17.7536 16.4807C18.0857 17.2436 18.4307 18.1071 18.66 18.7479C17.9593 18.5336 16.9929 18.1971 16.125 17.8607Z" fill="#0000DF"/>
<path d="M5.74563 9.19161C5.1092 9.19161 4.59277 9.69947 4.59277 10.3252C4.59277 10.9509 5.1092 11.4588 5.74563 11.4588C6.38206 11.4588 6.89849 10.9509 6.89849 10.3252C6.89635 9.69947 6.38206 9.19161 5.74563 9.19161Z" fill="#0000DF"/>
<path d="M10.3404 9.19161C9.70393 9.19161 9.1875 9.69947 9.1875 10.3252C9.1875 10.9509 9.70393 11.4588 10.3404 11.4588C10.9768 11.4588 11.4932 10.9509 11.4932 10.3252C11.4932 9.69947 10.9768 9.19161 10.3404 9.19161Z" fill="#0000DF"/>
<path d="M14.937 9.19161C14.3006 9.19161 13.7842 9.69947 13.7842 10.3252C13.7842 10.9509 14.3006 11.4588 14.937 11.4588C15.5735 11.4588 16.0899 10.9509 16.0899 10.3252C16.0899 9.69947 15.5735 9.19161 14.937 9.19161Z" fill="#0000DF"/>
</svg>
