<svg width="18" height="15" viewBox="0 0 18 15" fill="none" xmlns="http://www.w3.org/2000/svg">
<path fill-rule="evenodd" clip-rule="evenodd" d="M6.6037 0C5.52708 0 4.6543 0.872778 4.6543 1.9494V4.75526C4.6543 5.27227 4.85968 5.76811 5.22526 6.1337L11.4511 12.3595C12.0485 12.9569 13.0035 13.1301 13.7563 12.6373C15.1643 11.7155 16.3698 10.51 17.2916 9.10199C17.7844 8.34925 17.6112 7.39417 17.0138 6.79679L10.788 0.570967C10.4224 0.205383 9.92657 0 9.40956 0H6.6037ZM7.33473 3.41146C7.73846 3.41146 8.06575 3.08417 8.06575 2.68043C8.06575 2.2767 7.73846 1.9494 7.33473 1.9494C6.93099 1.9494 6.6037 2.2767 6.6037 2.68043C6.6037 3.08417 6.93099 3.41146 7.33473 3.41146Z" fill="white"/>
<path fill-rule="evenodd" clip-rule="evenodd" d="M2.9494 1.42358C1.87278 1.42358 1 2.29636 1 3.37299V6.17884C1 6.69586 1.20538 7.1917 1.57097 7.55728L7.79679 13.7831C8.39417 14.3805 9.34925 14.5537 10.102 14.0609C11.51 13.1391 12.7155 11.9336 13.6373 10.5256C14.1301 9.77283 13.9569 8.81775 13.3595 8.22037L7.1337 1.99455C6.76811 1.62897 6.27227 1.42358 5.75526 1.42358H2.9494ZM3.68043 4.83504C4.08417 4.83504 4.41146 4.50775 4.41146 4.10402C4.41146 3.70028 4.08417 3.37299 3.68043 3.37299C3.2767 3.37299 2.9494 3.70028 2.9494 4.10402C2.9494 4.50775 3.2767 4.83504 3.68043 4.83504Z" fill="white" stroke="#7F70C5"/>
</svg>
