<svg width="18" height="18" viewBox="0 0 18 18" fill="none" xmlns="http://www.w3.org/2000/svg">
<path fill-rule="evenodd" clip-rule="evenodd" d="M2.78029 3.02521C2.78029 1.35443 4.27447 0 6.11764 0C7.96082 0 9.455 1.35443 9.455 3.02521C9.455 4.69599 7.96082 6.05042 6.11764 6.05042C4.27447 6.05042 2.78029 4.69599 2.78029 3.02521Z" fill="#7F70C5"/>
<path fill-rule="evenodd" clip-rule="evenodd" d="M8.30134e-05 12.5078C0.0574412 9.48946 2.77434 7.05882 6.11764 7.05882C9.46103 7.05882 12.178 9.48958 12.2352 12.508C12.239 12.7082 12.1118 12.8914 11.911 12.9749C10.1467 13.7088 8.18423 14.1176 6.11788 14.1176C4.05135 14.1176 2.08867 13.7087 0.324234 12.9747C0.123495 12.8912 -0.00372107 12.708 8.30134e-05 12.5078Z" fill="#7F70C5"/>
<path d="M12.706 5.14844C10.9606 5.14844 9.51081 6.5122 9.51081 8.23667V9.27596C8.63641 9.49062 7.9707 10.2553 7.9707 11.1947V14.5224C7.9707 15.6342 8.90336 16.5014 10.0108 16.5014H15.4012C16.5086 16.5014 17.4413 15.6342 17.4413 14.5224V11.1947C17.4413 10.2553 16.7756 9.49062 15.9012 9.27596V8.23667C15.9012 6.5122 14.4514 5.14844 12.706 5.14844ZM14.1311 8.23667V9.21566H11.2809V8.23667C11.2809 7.51067 11.8996 6.88793 12.706 6.88793C13.5124 6.88793 14.1311 7.51067 14.1311 8.23667Z" fill="#7F70C5" stroke="white"/>
</svg>
