<svg width="21" height="21" viewBox="0 0 21 21" fill="none" xmlns="http://www.w3.org/2000/svg">
<path d="M10.5026 0H10.4974C4.70795 0 1.37772e-05 4.70924 1.37772e-05 10.5C-0.00358129 12.7116 0.69649 14.8669 1.99895 16.6543L0.690388 20.555L4.72632 19.2649C6.43831 20.4007 8.44814 21.0044 10.5026 21C16.2921 21 21 16.2894 21 10.5C21 4.71056 16.2921 0 10.5026 0Z" fill="#4CAF50"/>
<path d="M16.6122 14.8268C16.3589 15.5421 15.3535 16.1354 14.5516 16.3086C14.003 16.4254 13.2863 16.5186 10.874 15.5185C7.78829 14.2401 5.80116 11.1046 5.64629 10.9011C5.49798 10.6977 4.39941 9.2408 4.39941 7.73406C4.39941 6.22731 5.1646 5.49362 5.47304 5.17862C5.72635 4.92006 6.14504 4.80193 6.54666 4.80193C6.6766 4.80193 6.79341 4.8085 6.89841 4.81375C7.20685 4.82687 7.36172 4.84525 7.56516 5.33218C7.81847 5.94249 8.43535 7.44924 8.50885 7.60412C8.58366 7.75899 8.65847 7.96899 8.55347 8.17243C8.45504 8.38243 8.36841 8.47562 8.21354 8.65412C8.05866 8.83262 7.91166 8.96912 7.75679 9.16074C7.61504 9.32743 7.45491 9.50593 7.63341 9.81437C7.81191 10.1162 8.42879 11.1229 9.33704 11.9314C10.5091 12.9749 11.4593 13.3082 11.7993 13.45C12.0526 13.555 12.3545 13.53 12.5395 13.3332C12.7745 13.0799 13.0645 12.6599 13.3598 12.2464C13.5698 11.9498 13.835 11.913 14.1132 12.018C14.3967 12.1165 15.8969 12.858 16.2053 13.0116C16.5138 13.1665 16.7172 13.24 16.792 13.3699C16.8655 13.4999 16.8655 14.1102 16.6122 14.8268Z" fill="#FAFAFA"/>
</svg>
