<svg width="16" height="17" viewBox="0 0 16 17" fill="none" xmlns="http://www.w3.org/2000/svg">
<g clip-path="url(#clip0_617_1799)">
<path d="M16 8.15698V8.58826C16 9.57446 15.6559 10.4856 15.0312 11.1534C14.3804 11.8492 13.4639 12.2324 12.4503 12.2324L3.45911 12.2235C1.45325 12.2184 0 11.0442 0 9.43054L0 9.42383L0.00061035 9.24854C0.00268555 8.42712 0.383667 7.69336 1.07349 7.18298C1.70105 6.71863 2.55322 6.46423 3.47302 6.46655L11.9436 6.48779C12.4932 6.48926 13.0094 6.65759 13.3972 6.96204C13.8239 7.29688 14.0586 7.76233 14.0586 8.27319C14.0586 8.27454 14.0586 8.276 14.0586 8.27734C14.0573 8.77844 13.8224 9.27283 13.4139 9.63403C13.011 9.99048 12.4855 10.1859 11.9343 10.1846L5.16394 10.1676C4.90051 10.1669 4.6875 9.95312 4.6875 9.68982V9.6886C4.68811 9.4248 4.90259 9.21143 5.16638 9.21216L11.9368 9.22913C12.2537 9.22986 12.5535 9.11951 12.781 8.91833C12.9851 8.73779 13.1025 8.5033 13.103 8.27502V8.27332C13.103 8.00269 12.9424 7.81958 12.8074 7.71362C12.5863 7.54016 12.2787 7.44421 11.9412 7.44336L3.4707 7.422C2.75488 7.42029 2.10535 7.60815 1.64185 7.95105C1.32996 8.18188 0.957764 8.59485 0.956177 9.25146L0.955444 9.42664C0.955444 9.4281 0.955444 9.42957 0.955444 9.43103C0.955444 10.0847 1.32458 10.498 1.63464 10.7299C2.09644 11.0751 2.745 11.2662 3.46082 11.2679L12.4508 11.277C13.9535 11.277 15.0446 10.1461 15.0446 8.58826V8.15698C15.0446 6.599 13.9535 5.46838 12.4503 5.46838L4.95081 5.46838C4.68701 5.46838 4.47302 5.25439 4.47302 4.9906C4.47302 4.72681 4.68701 4.51282 4.95081 4.51282L12.4503 4.51282C13.4639 4.51282 14.3804 4.896 15.0312 5.59155C15.6559 6.25952 16 7.17053 16 8.15698Z" fill="#6165D7"/>
</g>
<defs>
<clipPath id="clip0_617_1799">
<rect width="16" height="16" fill="white" transform="matrix(0 -1 1 0 0 16.3574)"/>
</clipPath>
</defs>
</svg>
