<svg width="16" height="17" viewBox="0 0 16 17" fill="none" xmlns="http://www.w3.org/2000/svg">
<g clip-path="url(#clip0_617_1801)">
<path d="M14.61 10.4574L12.45 8.2774C12.4399 8.26485 12.4268 8.25506 12.412 8.24894C12.3971 8.24282 12.3809 8.24057 12.365 8.2424C12.3488 8.24301 12.333 8.24687 12.3184 8.25374C12.3038 8.26061 12.2907 8.27036 12.28 8.2824L10.84 9.8074C10.7469 9.90642 10.6346 9.98542 10.5099 10.0396C10.3853 10.0937 10.2509 10.1219 10.115 10.1224C9.97905 10.1219 9.84467 10.0937 9.72001 10.0396C9.59536 9.98542 9.48306 9.90642 9.38996 9.8074L6.29996 6.5124C6.27796 6.49272 6.24948 6.48185 6.21996 6.48185C6.19044 6.48185 6.16196 6.49272 6.13996 6.5124L1.32996 10.2624L0.709961 9.4574L5.49996 5.7074C5.71981 5.53647 5.99566 5.454 6.27326 5.47621C6.55085 5.49842 6.81008 5.6237 6.99996 5.8274L10.085 9.1224L11.515 7.5974C11.6173 7.4871 11.741 7.39875 11.8785 7.33773C12.016 7.2767 12.1645 7.24427 12.315 7.2424C12.4654 7.23849 12.6151 7.2658 12.7545 7.32259C12.8939 7.37939 13.0201 7.46445 13.125 7.5724L15.285 9.7524L14.61 10.4574Z" fill="#6165D7"/>
<path d="M13.54 15.8574H2.46C1.94018 15.8574 1.44164 15.6509 1.07407 15.2834C0.706499 14.9158 0.5 14.4172 0.5 13.8974V2.81742C0.5 2.2976 0.706499 1.79906 1.07407 1.43149C1.44164 1.06392 1.94018 0.857422 2.46 0.857422H13.54C14.0598 0.857422 14.5584 1.06392 14.9259 1.43149C15.2935 1.79906 15.5 2.2976 15.5 2.81742V13.8974C15.5 14.4172 15.2935 14.9158 14.9259 15.2834C14.5584 15.6509 14.0598 15.8574 13.54 15.8574ZM2.46 1.85742C2.20539 1.85742 1.96121 1.95856 1.78118 2.1386C1.60114 2.31863 1.5 2.56281 1.5 2.81742V13.8974C1.5 14.0235 1.52483 14.1483 1.57308 14.2648C1.62132 14.3813 1.69203 14.4871 1.78118 14.5762C1.87032 14.6654 1.97615 14.7361 2.09262 14.7843C2.2091 14.8326 2.33393 14.8574 2.46 14.8574H13.54C13.6661 14.8574 13.7909 14.8326 13.9074 14.7843C14.0238 14.7361 14.1297 14.6654 14.2188 14.5762C14.308 14.4871 14.3787 14.3813 14.4269 14.2648C14.4752 14.1483 14.5 14.0235 14.5 13.8974V2.81742C14.5 2.69135 14.4752 2.56652 14.4269 2.45005C14.3787 2.33357 14.308 2.22774 14.2188 2.1386C14.1297 2.04946 14.0238 1.97874 13.9074 1.9305C13.7909 1.88225 13.6661 1.85742 13.54 1.85742H2.46Z" fill="#6165D7"/>
<path d="M10.165 6.27148C10.7173 6.27148 11.165 5.82377 11.165 5.27148C11.165 4.7192 10.7173 4.27148 10.165 4.27148C9.61275 4.27148 9.16504 4.7192 9.16504 5.27148C9.16504 5.82377 9.61275 6.27148 10.165 6.27148Z" fill="#6165D7"/>
<path d="M1 10.108L5.765 6.27297L6.645 6.16797L9.53 9.24797C9.53 9.24797 10.03 9.93297 10.455 9.46297L11.89 7.93797C11.89 7.93797 12.175 7.31297 12.785 7.93797C13.395 8.56297 15 10.608 15 10.608L14.965 14.223C14.965 14.223 14.815 15.358 13.345 15.358C11.875 15.358 2.345 15.203 2.345 15.203C2.345 15.203 1 15.533 1 13.898C1 12.263 1 10.108 1 10.108Z" fill="#6165D7"/>
</g>
<defs>
<clipPath id="clip0_617_1801">
<rect width="16" height="16" fill="white" transform="translate(0 0.357422)"/>
</clipPath>
</defs>
</svg>
