<svg width="20" height="21" viewBox="0 0 20 21" fill="none" xmlns="http://www.w3.org/2000/svg">
<g clip-path="url(#clip0_462_412)">
<path d="M13.75 0.586914H6.25C4.5924 0.586914 3.00269 1.24539 1.83058 2.4175C0.65848 3.5896 0 5.17931 0 6.83691L0 14.3369C0 15.9945 0.65848 17.5842 1.83058 18.7563C3.00269 19.9284 4.5924 20.5869 6.25 20.5869H13.75C15.4076 20.5869 16.9973 19.9284 18.1694 18.7563C19.3415 17.5842 20 15.9945 20 14.3369V6.83691C20 5.17931 19.3415 3.5896 18.1694 2.4175C16.9973 1.24539 15.4076 0.586914 13.75 0.586914ZM18.125 14.3369C18.125 16.7494 16.1625 18.7119 13.75 18.7119H6.25C3.8375 18.7119 1.875 16.7494 1.875 14.3369V6.83691C1.875 4.42441 3.8375 2.46191 6.25 2.46191H13.75C16.1625 2.46191 18.125 4.42441 18.125 6.83691V14.3369Z" fill="#C6C6C7"/>
<path d="M10 5.58691C8.67392 5.58691 7.40215 6.1137 6.46447 7.05138C5.52678 7.98906 5 9.26083 5 10.5869C5 11.913 5.52678 13.1848 6.46447 14.1224C7.40215 15.0601 8.67392 15.5869 10 15.5869C11.3261 15.5869 12.5979 15.0601 13.5355 14.1224C14.4732 13.1848 15 11.913 15 10.5869C15 9.26083 14.4732 7.98906 13.5355 7.05138C12.5979 6.1137 11.3261 5.58691 10 5.58691ZM10 13.7119C9.1715 13.7109 8.37722 13.3814 7.79139 12.7955C7.20555 12.2097 6.87599 11.4154 6.875 10.5869C6.875 8.86316 8.2775 7.46191 10 7.46191C11.7225 7.46191 13.125 8.86316 13.125 10.5869C13.125 12.3094 11.7225 13.7119 10 13.7119Z" fill="#C6C6C7"/>
<path d="M15.3752 5.8784C15.7432 5.8784 16.0415 5.58011 16.0415 5.21215C16.0415 4.84419 15.7432 4.5459 15.3752 4.5459C15.0073 4.5459 14.709 4.84419 14.709 5.21215C14.709 5.58011 15.0073 5.8784 15.3752 5.8784Z" fill="#C6C6C7"/>
</g>
<defs>
<clipPath id="clip0_462_412">
<rect width="20" height="20" fill="white" transform="translate(0 0.586914)"/>
</clipPath>
</defs>
</svg>
