<svg width="170" height="168" viewBox="0 0 170 168" fill="none" xmlns="http://www.w3.org/2000/svg">
<path d="M154.418 109.851C138.836 146.608 97.3274 167.199 61.3323 161.645C55.4749 160.74 39.4162 158.049 25.2007 145.347C-2.16751 120.895 -8.02077 72.4773 14.0566 38.356C30.1267 13.5216 58.9308 -0.556297 86.3012 0.147961C92.1937 0.300205 114.79 1.23438 134.646 17.6374C137.562 20.0474 143.995 25.7715 149.792 34.8544C163.406 56.182 164.576 85.8955 154.418 109.851Z" fill="url(#paint0_linear_25_357)"/>
<path d="M51.6789 159.121C51.6789 159.121 40.6268 171.327 31.3982 166.168C23.9809 162.026 34.5192 163.105 43.4583 161.146C44.1602 160.992 43.9752 159.942 43.265 160.036C36.2704 160.968 25.5977 161.725 23.7441 158.068C20.9457 152.552 23.6594 154.34 32.1767 155.138C40.694 155.937 42.3335 153.828 36.7749 152.516C31.2163 151.204 22.3723 154.106 20.312 151.407C18.2517 148.708 17.1259 143.351 16.304 141.05C15.4822 138.749 26.9054 135.29 29.9944 138.314C33.0833 141.338 35.5892 148.09 39.2549 149.322C42.9207 150.555 38.9769 144.583 36.5464 141.501C34.116 138.419 33.1556 136.128 38.0072 136.863C42.8587 137.598 45.4307 143.535 45.9424 147.967C46.4542 152.4 48.164 154.877 48.0875 152.685C48.011 150.492 47.215 143.771 45.6644 141.747C44.1137 139.724 55.1906 142.193 51.6789 159.121Z" fill="#91B3FA"/>
<path d="M50.7784 159.237C50.7539 159.246 50.7273 159.249 50.7015 159.244C50.6756 159.239 50.6515 159.228 50.6316 159.211C41.1457 150.896 25.2359 144.853 25.0767 144.793C25.0587 144.787 25.0422 144.777 25.0282 144.763C25.0141 144.75 25.0028 144.735 24.9949 144.717C24.987 144.7 24.9827 144.681 24.9822 144.662C24.9816 144.643 24.985 144.624 24.9919 144.606C25.0056 144.57 25.0329 144.541 25.068 144.525C25.103 144.509 25.1429 144.507 25.179 144.521C25.3382 144.581 41.2966 150.642 50.8229 158.991C50.8374 159.004 50.8493 159.019 50.8579 159.037C50.8665 159.054 50.8715 159.073 50.8727 159.092C50.874 159.111 50.8714 159.13 50.8652 159.149C50.8589 159.167 50.8491 159.184 50.8363 159.198C50.8204 159.215 50.8005 159.229 50.7784 159.237Z" fill="url(#paint1_linear_25_357)"/>
<path d="M58.3498 166.916C58.3498 166.916 38.1674 167.583 34.8221 155.025C32.1343 144.931 40.1833 155.164 49.5441 161.387C50.2791 161.874 51.0462 160.815 50.3556 160.267C43.5627 154.882 33.7769 146.105 35.4082 141.347C37.8717 134.164 38.6129 138.089 45.1909 146.292C51.7688 154.494 55.0211 154.143 51.4266 148.112C47.8322 142.082 37.7229 136.75 38.338 132.625C38.9531 128.5 42.7046 122.929 44.031 120.235C45.3573 117.541 58.1576 124.677 58.1338 129.988C58.11 135.299 54.3088 143.282 56.3588 147.572C58.4088 151.862 60.2871 143.278 60.9281 138.498C61.569 133.719 62.7568 130.91 66.2582 135.827C69.7596 140.745 66.7276 148.083 63.2603 152.321C59.793 156.559 59.0776 160.193 60.9405 158.247C62.8034 156.3 68.0425 149.858 68.4964 146.761C68.9502 143.664 76.2476 155.557 58.3498 166.916Z" fill="#BDD0FB"/>
<path d="M57.4794 166.221C57.4497 166.208 57.4244 166.186 57.4062 166.159C57.3879 166.132 57.3775 166.101 57.376 166.068C56.5883 150.588 48.3139 131.373 48.2302 131.181C48.2191 131.159 48.2127 131.136 48.2112 131.111C48.2097 131.087 48.2131 131.062 48.2214 131.039C48.2297 131.016 48.2426 130.995 48.2594 130.977C48.2761 130.96 48.2963 130.945 48.3187 130.936C48.3411 130.926 48.3653 130.921 48.3897 130.921C48.4141 130.921 48.4383 130.926 48.4607 130.936C48.4831 130.945 48.5033 130.96 48.52 130.977C48.5367 130.995 48.5496 131.016 48.5579 131.039C48.6416 131.232 56.9408 150.504 57.7316 166.045C57.7329 166.069 57.7295 166.092 57.7217 166.114C57.7139 166.136 57.7019 166.156 57.6862 166.174C57.6706 166.191 57.6516 166.205 57.6305 166.216C57.6094 166.226 57.5865 166.231 57.5631 166.233C57.5347 166.236 57.5059 166.232 57.4794 166.221Z" fill="url(#paint2_linear_25_357)"/>
<path d="M148.596 105.392L7.43836 101.535C6.01065 101.497 4.6542 100.902 3.658 99.8767C2.6618 98.8514 2.1046 97.4769 2.1051 96.0461V37.3151C2.10517 36.6103 2.24507 35.9126 2.51667 35.2624C2.78828 34.6123 3.18617 34.0227 3.68723 33.5279C4.18828 33.0332 4.78249 32.6432 5.43533 32.3805C6.08817 32.1179 6.78661 31.9879 7.49005 31.998L147.05 33.9875C148.929 34.0142 150.723 34.7808 152.042 36.1215C153.362 37.4623 154.101 39.2695 154.101 41.1523V100.026C154.101 100.744 153.958 101.454 153.679 102.115C153.401 102.775 152.993 103.374 152.48 103.874C151.966 104.374 151.358 104.766 150.691 105.027C150.024 105.288 149.311 105.412 148.596 105.392Z" fill="#91B3FA"/>
<path opacity="0.14" d="M145.235 101.649L10.8167 98.163C7.9904 98.0894 5.73883 95.8907 5.73883 93.2021V40.1311C5.73883 37.4508 8.04622 35.2873 10.8664 35.3256L143.763 37.1246C147.484 37.1743 150.482 40.0587 150.482 43.5986V96.8C150.477 99.5301 148.112 101.723 145.235 101.649Z" fill="white"/>
<path d="M21.4378 101.243L30.4834 117.326C30.6204 117.569 30.8243 117.767 31.0708 117.896C31.3173 118.026 31.5959 118.082 31.8732 118.057C32.1504 118.032 32.4146 117.927 32.634 117.755C32.8534 117.584 33.0187 117.352 33.1102 117.089L38.5892 101.243H21.4378Z" fill="#91B3FA"/>
<path d="M76.8028 36.5229L59.855 36.294C59.7773 36.2885 59.7047 36.2534 59.6519 36.196C59.5992 36.1386 59.5704 36.0631 59.5715 35.9851C59.5726 35.907 59.6034 35.8324 59.6576 35.7764C59.7119 35.7204 59.7855 35.6873 59.8633 35.684L76.8111 35.9139C76.8917 35.9139 76.969 35.946 77.026 36.0031C77.083 36.0602 77.115 36.1376 77.115 36.2184C77.115 36.2991 77.083 36.3766 77.026 36.4337C76.969 36.4908 76.8917 36.5229 76.8111 36.5229H76.8028Z" fill="white"/>
<path d="M136.98 61.8637L19.4819 59.26C19.2877 59.2549 19.1035 59.1731 18.9693 59.0324C18.8351 58.8918 18.7618 58.7037 18.7654 58.5092L18.8802 53.3308C18.8851 53.1364 18.9665 52.9518 19.1067 52.8174C19.247 52.6829 19.4346 52.6095 19.6287 52.6131L137.127 55.2209C137.321 55.2258 137.505 55.3074 137.639 55.4479C137.774 55.5883 137.847 55.7763 137.843 55.9707L137.729 61.1491C137.723 61.3429 137.641 61.5267 137.501 61.6605C137.361 61.7943 137.174 61.8673 136.98 61.8637Z" fill="white"/>
<path d="M18.3968 75.4269L18.2823 80.6009C18.2733 81.0063 18.5941 81.3423 18.9988 81.3513L136.496 83.9609C136.901 83.9699 137.236 83.6485 137.245 83.2431L137.36 78.0691C137.369 77.6636 137.048 77.3277 136.643 77.3187L19.1458 74.7091C18.7411 74.7001 18.4058 75.0215 18.3968 75.4269Z" fill="white"/>
<path d="M62.1076 71.481L19.0074 70.5261C18.8733 70.5228 18.7459 70.4665 18.6531 70.3695C18.5604 70.2725 18.5097 70.1426 18.5122 70.0083L18.6362 64.3814C18.6395 64.2471 18.6957 64.1195 18.7925 64.0266C18.8894 63.9336 19.019 63.8828 19.1531 63.8853L62.2534 64.8402C62.3874 64.8438 62.5146 64.9001 62.6073 64.9971C62.7 65.0941 62.7508 65.2238 62.7486 65.3581L62.6245 70.9849C62.6213 71.1192 62.5651 71.2468 62.4682 71.3397C62.3714 71.4327 62.2417 71.4835 62.1076 71.481Z" fill="white"/>
<path d="M136.957 73.138L67.1381 71.5845C67.0041 71.581 66.8769 71.5246 66.7842 71.4276C66.6914 71.3307 66.6407 71.201 66.6429 71.0667L66.768 65.4399C66.7712 65.3056 66.8274 65.178 66.9243 65.085C67.0211 64.9921 67.1508 64.9413 67.2849 64.9438L137.104 66.4973C137.238 66.5006 137.366 66.5569 137.458 66.6539C137.551 66.7509 137.602 66.8808 137.599 67.0151L137.474 72.643C137.471 72.7771 137.414 72.9044 137.318 72.9972C137.221 73.0899 137.091 73.1405 136.957 73.138Z" fill="white"/>
<path d="M48.7853 62.8414L163.838 61.99C165.001 61.9811 166.115 61.5177 166.943 60.6984C167.771 59.8791 168.247 58.7685 168.27 57.6029L169.219 9.76108C169.231 9.18692 169.128 8.61622 168.917 8.08216C168.707 7.5481 168.392 7.06132 167.992 6.65013C167.592 6.23893 167.114 5.91152 166.587 5.68693C166.059 5.46234 165.492 5.34504 164.919 5.34186L51.2033 4.69871C49.672 4.6897 48.1988 5.28501 47.1022 6.35585C46.0057 7.4267 45.374 8.88697 45.3439 10.4208L44.3918 58.3797C44.38 58.9638 44.4852 59.5443 44.7011 60.087C44.9169 60.6297 45.2392 61.1235 45.6487 61.5394C46.0582 61.9553 46.5468 62.2848 47.0855 62.5084C47.6242 62.732 48.2022 62.8452 48.7853 62.8414Z" fill="url(#paint3_linear_25_357)"/>
<path d="M127.095 61.4681L119.467 74.4223C119.352 74.6183 119.182 74.7768 118.979 74.8787C118.776 74.9806 118.548 75.0215 118.322 74.9966C118.096 74.9717 117.883 74.8819 117.707 74.7381C117.531 74.5943 117.4 74.4027 117.33 74.1862L113.125 61.1895L127.095 61.4681Z" fill="url(#paint4_linear_25_357)"/>
<g opacity="0.63">
<path opacity="0.63" d="M81.1509 59.9736C81.0703 59.9736 80.993 59.9415 80.936 59.8844C80.879 59.8273 80.8469 59.7499 80.8469 59.6691C80.8469 59.5884 80.879 59.5109 80.936 59.4538C80.993 59.3967 81.0703 59.3646 81.1509 59.3646L90.4238 59.3087C90.5045 59.3087 90.5818 59.3408 90.6388 59.3979C90.6958 59.455 90.7278 59.5324 90.7278 59.6132C90.7278 59.694 90.6958 59.7714 90.6388 59.8285C90.5818 59.8856 90.5045 59.9177 90.4238 59.9177L81.1509 59.9736Z" fill="white"/>
</g>
<g opacity="0.63">
<path opacity="0.63" d="M51.5569 60.1517C50.952 60.1533 50.3528 60.0352 49.7936 59.8042C49.2344 59.5731 48.7263 59.2337 48.2984 58.8054C47.905 58.4123 47.5949 57.9436 47.3867 57.4275C47.1785 56.9114 47.0765 56.3585 47.0868 55.8019C47.0927 55.724 47.1281 55.6513 47.1858 55.5987C47.2435 55.5461 47.3192 55.5177 47.3972 55.5193C47.4751 55.5209 47.5496 55.5524 47.6051 55.6073C47.6606 55.6621 47.6931 55.7362 47.6957 55.8143C47.6869 56.2888 47.774 56.7602 47.9516 57.2002C48.1293 57.6402 48.3939 58.0396 48.7295 58.3745C49.1006 58.7464 49.5415 59.041 50.0268 59.2415C50.512 59.442 51.032 59.5444 51.5569 59.5428H51.5817L77.881 59.3843C77.9616 59.3843 78.0389 59.4164 78.0959 59.4735C78.1529 59.5306 78.1849 59.608 78.1849 59.6888C78.1849 59.7695 78.1529 59.847 78.0959 59.9041C78.0389 59.9612 77.9616 59.9933 77.881 59.9933L51.5817 60.1517H51.5569Z" fill="white"/>
</g>
<g opacity="0.63">
<path opacity="0.63" d="M47.4818 51.565H47.4756C47.4357 51.5642 47.3963 51.5555 47.3597 51.5394C47.3232 51.5234 47.2901 51.5003 47.2625 51.4714C47.2348 51.4426 47.2131 51.4085 47.1986 51.3713C47.1841 51.334 47.177 51.2943 47.1779 51.2543L47.4301 38.5155C47.4332 38.4363 47.4665 38.3613 47.523 38.3059C47.5794 38.2505 47.6549 38.2187 47.734 38.2172H47.7413C47.7812 38.218 47.8205 38.2267 47.8571 38.2428C47.8937 38.2588 47.9267 38.2819 47.9544 38.3108C47.982 38.3396 48.0037 38.3737 48.0182 38.4109C48.0327 38.4482 48.0398 38.4879 48.039 38.5279L47.7857 51.2667C47.7841 51.3464 47.7513 51.4222 47.6945 51.478C47.6377 51.5338 47.5613 51.565 47.4818 51.565Z" fill="white"/>
</g>
<g opacity="0.63">
<path opacity="0.63" d="M122.197 8.04911L108.388 7.96108C108.31 7.95654 108.237 7.92243 108.184 7.86573C108.13 7.80903 108.101 7.73402 108.101 7.65607C108.101 7.57812 108.13 7.50312 108.184 7.44642C108.237 7.38971 108.31 7.3556 108.388 7.35107L122.197 7.4391C122.275 7.44364 122.348 7.47775 122.401 7.53445C122.454 7.59115 122.484 7.66616 122.484 7.74411C122.484 7.82206 122.454 7.89706 122.401 7.95376C122.348 8.01047 122.275 8.04458 122.197 8.04911Z" fill="white"/>
</g>
<g opacity="0.63">
<path opacity="0.63" d="M165.957 25.2817H165.951C165.911 25.281 165.871 25.2724 165.835 25.2564C165.798 25.2404 165.765 25.2173 165.737 25.1885C165.709 25.1596 165.687 25.1255 165.673 25.0882C165.658 25.0509 165.651 25.011 165.652 24.971L165.91 11.9909C165.918 11.5249 165.833 11.0621 165.66 10.6297C165.486 10.1973 165.228 9.80402 164.9 9.47317C164.535 9.10367 164.1 8.81015 163.621 8.60949C163.142 8.40883 162.628 8.30497 162.109 8.30389L132.141 8.11229C132.06 8.11229 131.983 8.08021 131.926 8.0231C131.869 7.966 131.837 7.88856 131.837 7.8078C131.837 7.72705 131.869 7.6496 131.926 7.5925C131.983 7.53539 132.06 7.50331 132.141 7.50331L162.109 7.69388C162.708 7.69612 163.301 7.81686 163.853 8.04915C164.405 8.28144 164.906 8.62072 165.327 9.0475C165.711 9.43613 166.014 9.8979 166.217 10.4056C166.42 10.9132 166.52 11.4565 166.51 12.0033L166.261 24.9793C166.26 25.0597 166.228 25.1366 166.171 25.1932C166.114 25.2499 166.037 25.2817 165.957 25.2817Z" fill="white"/>
</g>
<path d="M152.672 17.8466H59.8054C59.0804 17.8466 58.4926 18.4355 58.4926 19.1619V23.4071C58.4926 24.1335 59.0804 24.7224 59.8054 24.7224H152.672C153.397 24.7224 153.985 24.1335 153.985 23.4071V19.1619C153.985 18.4355 153.397 17.8466 152.672 17.8466Z" fill="white"/>
<path d="M152.672 40.7132H59.8054C59.0804 40.7132 58.4926 41.3021 58.4926 42.0285V46.2737C58.4926 47.0002 59.0804 47.589 59.8054 47.589H152.672C153.397 47.589 153.985 47.0002 153.985 46.2737V42.0285C153.985 41.3021 153.397 40.7132 152.672 40.7132Z" fill="white"/>
<path d="M103.251 29.5134H59.4002C58.8989 29.5134 58.4926 29.9205 58.4926 30.4227V35.4799C58.4926 35.9821 58.8989 36.3893 59.4002 36.3893H103.251C103.752 36.3893 104.159 35.9821 104.159 35.4799V30.4227C104.159 29.9205 103.752 29.5134 103.251 29.5134Z" fill="white"/>
<path d="M153.077 29.5134H109.226C108.725 29.5134 108.319 29.9205 108.319 30.4227V35.4799C108.319 35.9821 108.725 36.3893 109.226 36.3893H153.077C153.578 36.3893 153.985 35.9821 153.985 35.4799V30.4227C153.985 29.9205 153.578 29.5134 153.077 29.5134Z" fill="white"/>
<defs>
<linearGradient id="paint0_linear_25_357" x1="174.91" y1="164.74" x2="54.1505" y2="59.269" gradientUnits="userSpaceOnUse">
<stop stop-color="#DAE3FE"/>
<stop offset="1" stop-color="#E9EFFD"/>
</linearGradient>
<linearGradient id="paint1_linear_25_357" x1="16800.8" y1="28439.3" x2="23284.9" y2="28439.3" gradientUnits="userSpaceOnUse">
<stop stop-color="#DAE3FE"/>
<stop offset="1" stop-color="#E9EFFD"/>
</linearGradient>
<linearGradient id="paint2_linear_25_357" x1="8357.17" y1="66818.3" x2="9233.68" y2="66818.3" gradientUnits="userSpaceOnUse">
<stop stop-color="#DAE3FE"/>
<stop offset="1" stop-color="#E9EFFD"/>
</linearGradient>
<linearGradient id="paint3_linear_25_357" x1="168.435" y1="-41.5084" x2="80.5238" y2="65.4972" gradientUnits="userSpaceOnUse">
<stop stop-color="#006AFF"/>
<stop offset="1" stop-color="#88B5F4"/>
</linearGradient>
<linearGradient id="paint4_linear_25_357" x1="30236.5" y1="2275.06" x2="18832.4" y2="16923.9" gradientUnits="userSpaceOnUse">
<stop stop-color="#006AFF"/>
<stop offset="1" stop-color="#79A7E8"/>
</linearGradient>
</defs>
</svg>
