<svg width="45" height="49" viewBox="0 0 45 49" fill="none" xmlns="http://www.w3.org/2000/svg">
<path d="M34.7106 36.2623C33.1385 34.1886 31.1044 32.5069 28.7688 31.3497C26.4331 30.1925 23.8597 29.5914 21.2511 29.5938C18.6426 29.5914 16.0691 30.1925 13.7335 31.3497C11.3978 32.5069 9.36379 34.1886 7.79163 36.2623M34.7106 36.2623C37.7785 33.5437 39.9421 29.9604 40.9188 25.9874C41.8954 22.0144 41.6367 17.8395 40.1769 14.0163C38.7171 10.1932 36.1253 6.90243 32.745 4.58049C29.3648 2.25855 25.3559 1.01514 21.25 1.01514C17.1441 1.01514 13.1352 2.25855 9.75499 4.58049C6.37475 6.90243 3.78287 10.1932 2.32308 14.0163C0.863293 17.8395 0.604569 22.0144 1.58122 25.9874C2.55787 29.9604 4.72375 33.5437 7.79163 36.2623M34.7106 36.2623C31.0072 39.5532 26.2138 41.3687 21.2511 41.3617C16.2877 41.3693 11.4957 39.5537 7.79163 36.2623M28.0011 16.1447C28.0011 17.9281 27.29 19.6386 26.0241 20.8997C24.7582 22.1608 23.0413 22.8692 21.2511 22.8692C19.4609 22.8692 17.744 22.1608 16.4782 20.8997C15.2123 19.6386 14.5011 17.9281 14.5011 16.1447C14.5011 14.3612 15.2123 12.6508 16.4782 11.3897C17.744 10.1286 19.4609 9.42015 21.2511 9.42015C23.0413 9.42015 24.7582 10.1286 26.0241 11.3897C27.29 12.6508 28.0011 14.3612 28.0011 16.1447Z" stroke="#8383B0" stroke-width="1.5" stroke-linecap="round" stroke-linejoin="round"/>
<circle cx="34.125" cy="38.125" r="10.125" fill="white"/>
<path d="M29.2287 46.0608C30.6886 46.9754 32.4074 47.5 34.2522 47.5C39.4909 47.5 43.75 43.2384 43.75 38C43.75 32.7616 39.4909 28.5 34.2522 28.5H34.2478C29.0091 28.5 24.75 32.7605 24.75 38C24.75 39.9845 25.3612 41.8317 26.4086 43.3566L25.3677 46.4596L25.0538 47.3955L25.994 47.0949L29.2287 46.0608Z" fill="#4CAF50" stroke="white"/>
<path d="M38.107 40.9277C37.944 41.422 37.2972 41.8319 36.7813 41.9517C36.4284 42.0324 35.9673 42.0968 34.4154 41.4056C32.4302 40.5222 31.1518 38.3554 31.0522 38.2148C30.9568 38.0742 30.25 37.0675 30.25 36.0262C30.25 34.985 30.7423 34.478 30.9407 34.2603C31.1037 34.0816 31.373 34 31.6314 34C31.715 34 31.7902 34.0045 31.8577 34.0082C32.0561 34.0172 32.1558 34.0299 32.2867 34.3664C32.4496 34.7882 32.8465 35.8294 32.8938 35.9364C32.9419 36.0435 32.99 36.1886 32.9225 36.3292C32.8592 36.4743 32.8034 36.5387 32.7038 36.662C32.6041 36.7854 32.5096 36.8797 32.4099 37.0121C32.3187 37.1273 32.2157 37.2507 32.3306 37.4638C32.4454 37.6724 32.8423 38.3681 33.4266 38.9268C34.1806 39.6479 34.7919 39.8783 35.0106 39.9762C35.1736 40.0488 35.3678 40.0315 35.4869 39.8955C35.638 39.7204 35.8246 39.4302 36.0146 39.1445C36.1497 38.9395 36.3203 38.9141 36.4993 38.9867C36.6817 39.0547 37.6468 39.5672 37.8452 39.6733C38.0437 39.7803 38.1746 39.8311 38.2227 39.9209C38.27 40.0107 38.27 40.4324 38.107 40.9277Z" fill="#FAFAFA"/>
</svg>
