<svg width="14" height="10" viewBox="0 0 14 10" fill="none" xmlns="http://www.w3.org/2000/svg">
<path fill-rule="evenodd" clip-rule="evenodd" d="M9.81003 1.10231C10.0218 1.26966 10.0627 1.58339 9.90134 1.80305L4.7585 8.80302C4.67418 8.91779 4.54616 8.98919 4.40735 8.99887C4.26853 9.00855 4.13245 8.95558 4.03406 8.85355L1.14122 5.85356C0.952928 5.6583 0.952928 5.34172 1.14122 5.14646C1.3295 4.9512 1.63478 4.9512 1.82307 5.14646L4.32582 7.74191L9.13432 1.197C9.2957 0.977353 9.59822 0.934957 9.81003 1.10231Z" fill="#29AAE3" stroke="#29AAE3" stroke-width="0.5" stroke-linecap="round" stroke-linejoin="round"/>
<path fill-rule="evenodd" clip-rule="evenodd" d="M12.8099 1.10231C13.0218 1.26966 13.0626 1.58339 12.9013 1.80305L7.75842 8.80302C7.6741 8.91779 7.54608 8.98919 7.40726 8.99887C7.26845 9.00855 7.13236 8.95558 7.03398 8.85355L5 7C4.81171 6.80474 5.31145 7.19526 5.49973 7C5.68802 6.80474 5.81145 6.30474 5.99973 6.5L7.32574 7.74191L12.1342 1.197C12.2956 0.977353 12.5981 0.934957 12.8099 1.10231Z" fill="#29AAE3" stroke="#29AAE3" stroke-width="0.5" stroke-linecap="round" stroke-linejoin="round"/>
</svg>
