<svg width="17" height="16" viewBox="0 0 17 16" fill="none" xmlns="http://www.w3.org/2000/svg">
<path d="M6.45117 3C6.45117 2.33696 6.71456 1.70107 7.1834 1.23223C7.65225 0.763392 8.28813 0.5 8.95117 0.5C9.61421 0.5 10.2501 0.763392 10.7189 1.23223C11.1878 1.70107 11.4512 2.33696 11.4512 3V8.5C11.4512 9.16304 11.1878 9.79893 10.7189 10.2678C10.2501 10.7366 9.61421 11 8.95117 11C8.28813 11 7.65225 10.7366 7.1834 10.2678C6.71456 9.79893 6.45117 9.16304 6.45117 8.5V3Z" fill="#6165D7"/>
<path d="M4.95117 7C5.08378 7 5.21096 7.05268 5.30473 7.14645C5.39849 7.24022 5.45117 7.36739 5.45117 7.5V8.5C5.45117 9.42826 5.81992 10.3185 6.4763 10.9749C7.13268 11.6313 8.02291 12 8.95117 12C9.87943 12 10.7697 11.6313 11.426 10.9749C12.0824 10.3185 12.4512 9.42826 12.4512 8.5V7.5C12.4512 7.36739 12.5038 7.24022 12.5976 7.14645C12.6914 7.05268 12.8186 7 12.9512 7C13.0838 7 13.211 7.05268 13.3047 7.14645C13.3985 7.24022 13.4512 7.36739 13.4512 7.5V8.5C13.4512 9.60695 13.0432 10.6751 12.3053 11.5002C11.5674 12.3253 10.5512 12.8495 9.45117 12.9727V14.5H11.4512C11.5838 14.5 11.711 14.5527 11.8047 14.6464C11.8985 14.7402 11.9512 14.8674 11.9512 15C11.9512 15.1326 11.8985 15.2598 11.8047 15.3536C11.711 15.4473 11.5838 15.5 11.4512 15.5H6.45117C6.31856 15.5 6.19139 15.4473 6.09762 15.3536C6.00385 15.2598 5.95117 15.1326 5.95117 15C5.95117 14.8674 6.00385 14.7402 6.09762 14.6464C6.19139 14.5527 6.31856 14.5 6.45117 14.5H8.45117V12.9727C7.35109 12.8495 6.33498 12.3253 5.59706 11.5002C4.85915 10.6751 4.45119 9.60695 4.45117 8.5V7.5C4.45117 7.36739 4.50385 7.24022 4.59762 7.14645C4.69139 7.05268 4.81856 7 4.95117 7Z" fill="#6165D7"/>
</svg>
