<svg width="45" height="50" viewBox="0 0 45 50" fill="none" xmlns="http://www.w3.org/2000/svg">
<path d="M34.7106 36.9781C33.1385 34.9044 31.1044 33.2227 28.7688 32.0655C26.4331 30.9083 23.8597 30.3072 21.2511 30.3096C18.6426 30.3072 16.0691 30.9083 13.7335 32.0655C11.3978 33.2227 9.36379 34.9044 7.79163 36.9781M34.7106 36.9781C37.7785 34.2596 39.9421 30.6762 40.9188 26.7032C41.8954 22.7302 41.6367 18.5553 40.1769 14.7321C38.7171 10.909 36.1253 7.61825 32.745 5.29631C29.3648 2.97438 25.3559 1.73096 21.25 1.73096C17.1441 1.73096 13.1352 2.97438 9.75499 5.29631C6.37475 7.61825 3.78287 10.909 2.32308 14.7321C0.863293 18.5553 0.604569 22.7302 1.58122 26.7032C2.55787 30.6762 4.72375 34.2596 7.79163 36.9781M34.7106 36.9781C31.0072 40.269 26.2138 42.0846 21.2511 42.0775C16.2877 42.0851 11.4957 40.2695 7.79163 36.9781M28.0011 16.8605C28.0011 18.644 27.29 20.3544 26.0241 21.6155C24.7582 22.8766 23.0413 23.585 21.2511 23.585C19.4609 23.585 17.744 22.8766 16.4782 21.6155C15.2123 20.3544 14.5011 18.644 14.5011 16.8605C14.5011 15.077 15.2123 13.3666 16.4782 12.1055C17.744 10.8444 19.4609 10.136 21.2511 10.136C23.0413 10.136 24.7582 10.8444 26.0241 12.1055C27.29 13.3666 28.0011 15.077 28.0011 16.8605Z" stroke="#002659" stroke-width="1.5" stroke-linecap="round" stroke-linejoin="round"/>
<circle cx="34.125" cy="39.125" r="10.125" fill="#E1E2FF"/>
<path d="M29.2287 47.0608C30.6886 47.9754 32.4074 48.5 34.2522 48.5C39.4909 48.5 43.75 44.2384 43.75 39C43.75 33.7616 39.4909 29.5 34.2522 29.5H34.2478C29.0091 29.5 24.75 33.7605 24.75 39C24.75 40.9845 25.3612 42.8317 26.4086 44.3566L25.3677 47.4596L25.0538 48.3955L25.994 48.0949L29.2287 47.0608Z" fill="#4CAF50" stroke="#E1E2FF"/>
<path d="M38.107 41.9277C37.944 42.422 37.2972 42.8319 36.7813 42.9517C36.4284 43.0324 35.9673 43.0968 34.4154 42.4056C32.4302 41.5222 31.1518 39.3554 31.0522 39.2148C30.9568 39.0742 30.25 38.0675 30.25 37.0262C30.25 35.985 30.7423 35.478 30.9407 35.2603C31.1037 35.0816 31.373 35 31.6314 35C31.715 35 31.7902 35.0045 31.8577 35.0082C32.0561 35.0172 32.1558 35.0299 32.2867 35.3664C32.4496 35.7882 32.8465 36.8294 32.8938 36.9364C32.9419 37.0435 32.99 37.1886 32.9225 37.3292C32.8592 37.4743 32.8034 37.5387 32.7038 37.662C32.6041 37.7854 32.5096 37.8797 32.4099 38.0121C32.3187 38.1273 32.2157 38.2507 32.3306 38.4638C32.4454 38.6724 32.8423 39.3681 33.4266 39.9268C34.1806 40.6479 34.7919 40.8783 35.0106 40.9762C35.1736 41.0488 35.3678 41.0315 35.4869 40.8955C35.638 40.7204 35.8246 40.4302 36.0146 40.1445C36.1497 39.9395 36.3203 39.9141 36.4993 39.9867C36.6817 40.0547 37.6468 40.5672 37.8452 40.6733C38.0437 40.7803 38.1746 40.8311 38.2227 40.9209C38.27 41.0107 38.27 41.4324 38.107 41.9277Z" fill="#E1E2FF"/>
</svg>
