<svg width="20" height="21" viewBox="0 0 20 21" fill="none" xmlns="http://www.w3.org/2000/svg">
<path d="M18.1362 15.9633C19.2242 14.3753 19.8002 12.5173 19.8002 10.5873C19.8002 5.27127 15.4042 0.947266 10.0002 0.947266C4.59619 0.947266 0.200195 5.27127 0.200195 10.5873C0.200195 15.9033 4.59619 20.2273 10.0002 20.2273C11.7222 20.2273 13.4142 19.7813 14.8982 18.9393C18.0422 20.1313 18.4522 19.9453 18.6982 19.8333L18.7942 19.7913L18.8742 19.7253C19.0502 19.5773 19.2322 19.4253 19.1582 18.8853C19.0842 18.3513 18.7582 17.4213 18.1362 15.9633ZM15.2502 17.6173L14.8822 17.4753L14.5482 17.6833C13.1882 18.5273 11.6142 18.9753 9.99819 18.9753C5.29819 18.9753 1.4722 15.2133 1.4722 10.5873C1.4722 5.96127 5.29819 2.19927 10.0002 2.19927C14.7022 2.19927 18.5282 5.96127 18.5282 10.5873C18.5282 12.3973 17.9502 14.1213 16.8602 15.5713L16.5942 15.9253L16.7702 16.3293C17.0802 17.0413 17.4022 17.8473 17.6162 18.4453C16.9622 18.2453 16.0602 17.9313 15.2502 17.6173Z" fill="#C6C6C7"/>
<path d="M5.56428 9.52539C4.97028 9.52539 4.48828 9.99939 4.48828 10.5834C4.48828 11.1674 4.97028 11.6414 5.56428 11.6414C6.15828 11.6414 6.64028 11.1674 6.64028 10.5834C6.63828 9.99939 6.15828 9.52539 5.56428 9.52539Z" fill="#C6C6C7"/>
<path d="M9.85237 9.52539C9.25837 9.52539 8.77637 9.99939 8.77637 10.5834C8.77637 11.1674 9.25837 11.6414 9.85237 11.6414C10.4464 11.6414 10.9284 11.1674 10.9284 10.5834C10.9284 9.99939 10.4464 9.52539 9.85237 9.52539Z" fill="#C6C6C7"/>
<path d="M14.14 9.52539C13.546 9.52539 13.064 9.99939 13.064 10.5834C13.064 11.1674 13.546 11.6414 14.14 11.6414C14.734 11.6414 15.216 11.1674 15.216 10.5834C15.216 9.99939 14.734 9.52539 14.14 9.52539Z" fill="#C6C6C7"/>
</svg>
