<svg width="20" height="20" viewBox="0 0 20 20" fill="none" xmlns="http://www.w3.org/2000/svg">
<path d="M10.0025 0H9.99751C4.48376 0 1.31212e-05 4.48499 1.31212e-05 9.99999C-0.00341075 12.1062 0.663324 14.159 1.90376 15.8612L0.657513 19.5762L4.50126 18.3475C6.13172 19.4292 8.04585 20.0042 10.0025 20C15.5163 20 20 15.5137 20 9.99999C20 4.48625 15.5163 0 10.0025 0Z" fill="#4CAF50"/>
<path d="M15.8212 14.1207C15.5799 14.802 14.6224 15.367 13.8587 15.532C13.3362 15.6432 12.6537 15.732 10.3562 14.7795C7.41744 13.562 5.52494 10.5757 5.37744 10.382C5.23619 10.1882 4.18994 8.80074 4.18994 7.36574C4.18994 5.93074 4.91869 5.23199 5.21244 4.93199C5.45369 4.68574 5.85244 4.57324 6.23494 4.57324C6.35869 4.57324 6.46994 4.57949 6.56994 4.58449C6.86369 4.59699 7.01119 4.61449 7.20494 5.07824C7.44619 5.65949 8.03369 7.09449 8.10369 7.24199C8.17494 7.38949 8.24619 7.58949 8.14619 7.78324C8.05244 7.98324 7.96994 8.07199 7.82244 8.24199C7.67494 8.41199 7.53494 8.54199 7.38744 8.72449C7.25244 8.88324 7.09994 9.05324 7.26994 9.34699C7.43994 9.63449 8.02744 10.5932 8.89244 11.3632C10.0087 12.357 10.9137 12.6745 11.2374 12.8095C11.4787 12.9095 11.7662 12.8857 11.9424 12.6982C12.1662 12.457 12.4424 12.057 12.7237 11.6632C12.9237 11.3807 13.1762 11.3457 13.4412 11.4457C13.7112 11.5395 15.1399 12.2457 15.4337 12.392C15.7274 12.5395 15.9212 12.6095 15.9924 12.7332C16.0624 12.857 16.0624 13.4382 15.8212 14.1207Z" fill="#FAFAFA"/>
</svg>
