<svg width="26" height="26" viewBox="0 0 26 26" fill="none" xmlns="http://www.w3.org/2000/svg">
<g filter="url(#filter0_d_495_6570)">
<circle cx="13" cy="11" r="10" fill="#FF2222"/>
</g>
<path d="M17.8592 13.4043L13.935 6.54081C13.7438 6.20624 13.3865 6 12.9994 6C12.6118 6 12.2545 6.20624 12.0634 6.54081L8.1395 13.4043C7.95035 13.7346 7.95278 14.1405 8.14537 14.4692C8.33795 14.7976 8.69236 15 9.0753 15H16.9232C17.3063 15 17.6604 14.7976 17.8531 14.4692C18.0459 14.1405 18.048 13.7344 17.8592 13.4043ZM13.5354 13.7388C13.4039 13.8549 13.2478 13.9138 13.0718 13.9138C12.8936 13.9138 12.736 13.8557 12.6029 13.7413C12.4669 13.624 12.3977 13.4597 12.3977 13.2529C12.3977 13.0713 12.4629 12.9147 12.5913 12.7874C12.7196 12.6602 12.8786 12.5956 13.0639 12.5956C13.2488 12.5956 13.409 12.6598 13.5401 12.787C13.6714 12.9145 13.7381 13.0713 13.7381 13.2529C13.7379 13.4567 13.6698 13.62 13.5354 13.7388ZM13.7096 9.31937L13.5387 11.2629C13.5194 11.5049 13.4782 11.6873 13.4126 11.8198C13.3404 11.9664 13.2144 12.0441 13.0479 12.0441C12.8782 12.0441 12.7532 11.968 12.6862 11.824C12.6267 11.6961 12.5859 11.5103 12.561 11.2553L12.4335 9.36396C12.4095 8.99023 12.3975 8.72936 12.3975 8.56649C12.3975 8.33113 12.4621 8.14336 12.5893 8.00841C12.7178 7.87226 12.8883 7.80297 13.0954 7.80297C13.3511 7.80297 13.5259 7.89515 13.6153 8.07669C13.6975 8.24418 13.7375 8.47552 13.7375 8.78378C13.7379 8.9585 13.7284 9.13863 13.7096 9.31937Z" fill="#FAFAFA"/>
<defs>
<filter id="filter0_d_495_6570" x="0.5" y="0.5" width="25" height="25" filterUnits="userSpaceOnUse" color-interpolation-filters="sRGB">
<feFlood flood-opacity="0" result="BackgroundImageFix"/>
<feColorMatrix in="SourceAlpha" type="matrix" values="0 0 0 0 0 0 0 0 0 0 0 0 0 0 0 0 0 0 127 0" result="hardAlpha"/>
<feOffset dy="2"/>
<feGaussianBlur stdDeviation="1.25"/>
<feComposite in2="hardAlpha" operator="out"/>
<feColorMatrix type="matrix" values="0 0 0 0 0 0 0 0 0 0 0 0 0 0 0 0 0 0 0.0784314 0"/>
<feBlend mode="normal" in2="BackgroundImageFix" result="effect1_dropShadow_495_6570"/>
<feBlend mode="normal" in="SourceGraphic" in2="effect1_dropShadow_495_6570" result="shape"/>
</filter>
</defs>
</svg>
