<svg width="25" height="25" viewBox="0 0 25 25" fill="none" xmlns="http://www.w3.org/2000/svg">
<path fill-rule="evenodd" clip-rule="evenodd" d="M5.85937 1.5625H9.375C10.411 1.5625 11.4046 1.97405 12.1371 2.70661C12.8697 3.43918 13.2812 4.43275 13.2812 5.46875V7.42188C13.2812 8.50104 14.1562 9.375 15.2344 9.375H17.1875C18.2235 9.375 19.2171 9.78655 19.9496 10.5191C20.6822 11.2517 21.0938 12.2452 21.0938 13.2812V21.4844C21.0938 22.5625 20.2188 23.4375 19.1406 23.4375H5.85937C5.34137 23.4375 4.84459 23.2317 4.47831 22.8654C4.11203 22.4992 3.90625 22.0024 3.90625 21.4844V3.51562C3.90625 2.43646 4.78125 1.5625 5.85937 1.5625ZM10.1562 17.9688C10.1562 17.7615 10.0739 17.5628 9.92743 17.4163C9.78091 17.2698 9.5822 17.1875 9.375 17.1875C9.1678 17.1875 8.96909 17.2698 8.82257 17.4163C8.67606 17.5628 8.59375 17.7615 8.59375 17.9688V18.75C8.59375 18.9572 8.67606 19.1559 8.82257 19.3024C8.96909 19.4489 9.1678 19.5312 9.375 19.5312C9.5822 19.5312 9.78091 19.4489 9.92743 19.3024C10.0739 19.1559 10.1562 18.9572 10.1562 18.75V17.9688ZM12.5 14.8437C12.7072 14.8437 12.9059 14.9261 13.0524 15.0726C13.1989 15.2191 13.2812 15.4178 13.2812 15.625V18.75C13.2812 18.9572 13.1989 19.1559 13.0524 19.3024C12.9059 19.4489 12.7072 19.5312 12.5 19.5312C12.2928 19.5312 12.0941 19.4489 11.9476 19.3024C11.8011 19.1559 11.7187 18.9572 11.7187 18.75V15.625C11.7187 15.4178 11.8011 15.2191 11.9476 15.0726C12.0941 14.9261 12.2928 14.8437 12.5 14.8437ZM16.4062 13.2812C16.4062 13.074 16.3239 12.8753 16.1774 12.7288C16.0309 12.5823 15.8322 12.5 15.625 12.5C15.4178 12.5 15.2191 12.5823 15.0726 12.7288C14.9261 12.8753 14.8438 13.074 14.8438 13.2812V18.75C14.8438 18.9572 14.9261 19.1559 15.0726 19.3024C15.2191 19.4489 15.4178 19.5312 15.625 19.5312C15.8322 19.5312 16.0309 19.4489 16.1774 19.3024C16.3239 19.1559 16.4062 18.9572 16.4062 18.75V13.2812Z" fill="#AEACAC"/>
<path d="M14.8438 5.46868C14.8456 4.15467 14.3724 2.88427 13.5115 1.8916C15.2545 2.3499 16.8445 3.26293 18.1189 4.53732C19.3933 5.8117 20.3063 7.40171 20.7646 9.14473C19.7719 8.28377 18.5015 7.81061 17.1875 7.81243H15.2344C15.1308 7.81243 15.0314 7.77128 14.9582 7.69802C14.8849 7.62477 14.8438 7.52541 14.8438 7.42181V5.46868Z" fill="#AEACAC"/>
</svg>
