<svg width="19" height="19" viewBox="0 0 19 19" fill="none" xmlns="http://www.w3.org/2000/svg">
<path d="M16.5312 10.2812H18.0938C18.301 10.2812 18.4997 10.1989 18.6462 10.0524C18.7927 9.90591 18.875 9.7072 18.875 9.5C18.875 9.2928 18.7927 9.09409 18.6462 8.94757C18.4997 8.80106 18.301 8.71875 18.0938 8.71875H16.5312C16.324 8.71875 16.1253 8.80106 15.9788 8.94757C15.8323 9.09409 15.75 9.2928 15.75 9.5C15.75 9.7072 15.8323 9.90591 15.9788 10.0524C16.1253 10.1989 16.324 10.2812 16.5312 10.2812ZM9.5 3.25C9.5 3.0428 9.58231 2.84409 9.72882 2.69757C9.87534 2.55106 10.074 2.46875 10.2812 2.46875H18.0938C18.301 2.46875 18.4997 2.55106 18.6462 2.69757C18.7927 2.84409 18.875 3.0428 18.875 3.25C18.875 3.4572 18.7927 3.65591 18.6462 3.80243C18.4997 3.94894 18.301 4.03125 18.0938 4.03125H10.2812C10.074 4.03125 9.87534 3.94894 9.72882 3.80243C9.58231 3.65591 9.5 3.4572 9.5 3.25ZM9.5 15.75C9.5 15.5428 9.58231 15.3441 9.72882 15.1976C9.87534 15.0511 10.074 14.9687 10.2812 14.9687H18.0938C18.301 14.9687 18.4997 15.0511 18.6462 15.1976C18.7927 15.3441 18.875 15.5428 18.875 15.75C18.875 15.9572 18.7927 16.1559 18.6462 16.3024C18.4997 16.4489 18.301 16.5312 18.0938 16.5312H10.2812C10.074 16.5312 9.87534 16.4489 9.72882 16.3024C9.58231 16.1559 9.5 15.9572 9.5 15.75ZM0.90625 4.03125H2.46875C2.67595 4.03125 2.87466 3.94894 3.02118 3.80243C3.16769 3.65591 3.25 3.4572 3.25 3.25C3.25 3.0428 3.16769 2.84409 3.02118 2.69757C2.87466 2.55106 2.67595 2.46875 2.46875 2.46875H0.90625C0.69905 2.46875 0.500336 2.55106 0.353823 2.69757C0.20731 2.84409 0.125 3.0428 0.125 3.25C0.125 3.4572 0.20731 3.65591 0.353823 3.80243C0.500336 3.94894 0.69905 4.03125 0.90625 4.03125ZM2.46875 16.5312H0.90625C0.69905 16.5312 0.500336 16.4489 0.353823 16.3024C0.20731 16.1559 0.125 15.9572 0.125 15.75C0.125 15.5428 0.20731 15.3441 0.353823 15.1976C0.500336 15.0511 0.69905 14.9687 0.90625 14.9687H2.46875C2.67595 14.9687 2.87466 15.0511 3.02118 15.1976C3.16769 15.3441 3.25 15.5428 3.25 15.75C3.25 15.9572 3.16769 16.1559 3.02118 16.3024C2.87466 16.4489 2.67595 16.5312 2.46875 16.5312ZM0.125 9.5C0.125 9.2928 0.20731 9.09409 0.353823 8.94757C0.500336 8.80106 0.69905 8.71875 0.90625 8.71875H8.71875C8.92595 8.71875 9.12466 8.80106 9.27118 8.94757C9.41769 9.09409 9.5 9.2928 9.5 9.5C9.5 9.7072 9.41769 9.90591 9.27118 10.0524C9.12466 10.1989 8.92595 10.2812 8.71875 10.2812H0.90625C0.69905 10.2812 0.500336 10.1989 0.353823 10.0524C0.20731 9.90591 0.125 9.7072 0.125 9.5ZM6.375 0.90625C5.7534 0.90625 5.15726 1.15318 4.71772 1.59272C4.27818 2.03226 4.03125 2.6284 4.03125 3.25C4.03125 3.8716 4.27818 4.46774 4.71772 4.90728C5.15726 5.34682 5.7534 5.59375 6.375 5.59375C6.9966 5.59375 7.59274 5.34682 8.03228 4.90728C8.47182 4.46774 8.71875 3.8716 8.71875 3.25C8.71875 2.6284 8.47182 2.03226 8.03228 1.59272C7.59274 1.15318 6.9966 0.90625 6.375 0.90625ZM10.2812 9.5C10.2812 8.8784 10.5282 8.28226 10.9677 7.84272C11.4073 7.40318 12.0034 7.15625 12.625 7.15625C13.2466 7.15625 13.8427 7.40318 14.2823 7.84272C14.7218 8.28226 14.9687 8.8784 14.9687 9.5C14.9687 10.1216 14.7218 10.7177 14.2823 11.1573C13.8427 11.5968 13.2466 11.8438 12.625 11.8438C12.0034 11.8438 11.4073 11.5968 10.9677 11.1573C10.5282 10.7177 10.2812 10.1216 10.2812 9.5ZM6.375 13.4062C5.7534 13.4062 5.15726 13.6532 4.71772 14.0927C4.27818 14.5323 4.03125 15.1284 4.03125 15.75C4.03125 16.3716 4.27818 16.9677 4.71772 17.4073C5.15726 17.8468 5.7534 18.0938 6.375 18.0938C6.9966 18.0938 7.59274 17.8468 8.03228 17.4073C8.47182 16.9677 8.71875 16.3716 8.71875 15.75C8.71875 15.1284 8.47182 14.5323 8.03228 14.0927C7.59274 13.6532 6.9966 13.4062 6.375 13.4062Z" fill="#6162BE"/>
</svg>
