<svg width="25" height="25" viewBox="0 0 25 25" fill="none" xmlns="http://www.w3.org/2000/svg">
<path d="M19.5312 13.2812H21.0938C21.301 13.2812 21.4997 13.1989 21.6462 13.0524C21.7927 12.9059 21.875 12.7072 21.875 12.5C21.875 12.2928 21.7927 12.0941 21.6462 11.9476C21.4997 11.8011 21.301 11.7187 21.0938 11.7187H19.5312C19.324 11.7187 19.1253 11.8011 18.9788 11.9476C18.8323 12.0941 18.75 12.2928 18.75 12.5C18.75 12.7072 18.8323 12.9059 18.9788 13.0524C19.1253 13.1989 19.324 13.2812 19.5312 13.2812ZM12.5 6.25C12.5 6.0428 12.5823 5.84409 12.7288 5.69757C12.8753 5.55106 13.074 5.46875 13.2812 5.46875H21.0938C21.301 5.46875 21.4997 5.55106 21.6462 5.69757C21.7927 5.84409 21.875 6.0428 21.875 6.25C21.875 6.4572 21.7927 6.65591 21.6462 6.80243C21.4997 6.94894 21.301 7.03125 21.0938 7.03125H13.2812C13.074 7.03125 12.8753 6.94894 12.7288 6.80243C12.5823 6.65591 12.5 6.4572 12.5 6.25ZM12.5 18.75C12.5 18.5428 12.5823 18.3441 12.7288 18.1976C12.8753 18.0511 13.074 17.9687 13.2812 17.9687H21.0938C21.301 17.9687 21.4997 18.0511 21.6462 18.1976C21.7927 18.3441 21.875 18.5428 21.875 18.75C21.875 18.9572 21.7927 19.1559 21.6462 19.3024C21.4997 19.4489 21.301 19.5312 21.0938 19.5312H13.2812C13.074 19.5312 12.8753 19.4489 12.7288 19.3024C12.5823 19.1559 12.5 18.9572 12.5 18.75ZM3.90625 7.03125H5.46875C5.67595 7.03125 5.87466 6.94894 6.02118 6.80243C6.16769 6.65591 6.25 6.4572 6.25 6.25C6.25 6.0428 6.16769 5.84409 6.02118 5.69757C5.87466 5.55106 5.67595 5.46875 5.46875 5.46875H3.90625C3.69905 5.46875 3.50034 5.55106 3.35382 5.69757C3.20731 5.84409 3.125 6.0428 3.125 6.25C3.125 6.4572 3.20731 6.65591 3.35382 6.80243C3.50034 6.94894 3.69905 7.03125 3.90625 7.03125ZM5.46875 19.5312H3.90625C3.69905 19.5312 3.50034 19.4489 3.35382 19.3024C3.20731 19.1559 3.125 18.9572 3.125 18.75C3.125 18.5428 3.20731 18.3441 3.35382 18.1976C3.50034 18.0511 3.69905 17.9687 3.90625 17.9687H5.46875C5.67595 17.9687 5.87466 18.0511 6.02118 18.1976C6.16769 18.3441 6.25 18.5428 6.25 18.75C6.25 18.9572 6.16769 19.1559 6.02118 19.3024C5.87466 19.4489 5.67595 19.5312 5.46875 19.5312ZM3.125 12.5C3.125 12.2928 3.20731 12.0941 3.35382 11.9476C3.50034 11.8011 3.69905 11.7187 3.90625 11.7187H11.7188C11.926 11.7187 12.1247 11.8011 12.2712 11.9476C12.4177 12.0941 12.5 12.2928 12.5 12.5C12.5 12.7072 12.4177 12.9059 12.2712 13.0524C12.1247 13.1989 11.926 13.2812 11.7188 13.2812H3.90625C3.69905 13.2812 3.50034 13.1989 3.35382 13.0524C3.20731 12.9059 3.125 12.7072 3.125 12.5ZM9.375 3.90625C8.7534 3.90625 8.15726 4.15318 7.71772 4.59272C7.27818 5.03226 7.03125 5.6284 7.03125 6.25C7.03125 6.8716 7.27818 7.46774 7.71772 7.90728C8.15726 8.34682 8.7534 8.59375 9.375 8.59375C9.9966 8.59375 10.5927 8.34682 11.0323 7.90728C11.4718 7.46774 11.7188 6.8716 11.7188 6.25C11.7188 5.6284 11.4718 5.03226 11.0323 4.59272C10.5927 4.15318 9.9966 3.90625 9.375 3.90625ZM13.2812 12.5C13.2812 11.8784 13.5282 11.2823 13.9677 10.8427C14.4073 10.4032 15.0034 10.1562 15.625 10.1562C16.2466 10.1562 16.8427 10.4032 17.2823 10.8427C17.7218 11.2823 17.9687 11.8784 17.9687 12.5C17.9687 13.1216 17.7218 13.7177 17.2823 14.1573C16.8427 14.5968 16.2466 14.8438 15.625 14.8438C15.0034 14.8438 14.4073 14.5968 13.9677 14.1573C13.5282 13.7177 13.2812 13.1216 13.2812 12.5ZM9.375 16.4062C8.7534 16.4062 8.15726 16.6532 7.71772 17.0927C7.27818 17.5323 7.03125 18.1284 7.03125 18.75C7.03125 19.3716 7.27818 19.9677 7.71772 20.4073C8.15726 20.8468 8.7534 21.0938 9.375 21.0938C9.9966 21.0938 10.5927 20.8468 11.0323 20.4073C11.4718 19.9677 11.7188 19.3716 11.7188 18.75C11.7188 18.1284 11.4718 17.5323 11.0323 17.0927C10.5927 16.6532 9.9966 16.4062 9.375 16.4062Z" fill="#AEACAC"/>
</svg>
