<svg width="25" height="25" viewBox="0 0 25 25" fill="none" xmlns="http://www.w3.org/2000/svg">
<path fill-rule="evenodd" clip-rule="evenodd" d="M12.5 1.5625C10.499 1.5625 8.525 1.67813 6.58333 1.90313C5.02396 2.08438 3.90625 3.42396 3.90625 4.95521V22.6563C3.90628 22.784 3.93761 22.9097 3.9975 23.0225C4.0574 23.1353 4.14402 23.2316 4.2498 23.3032C4.35557 23.3747 4.47727 23.4193 4.60425 23.4329C4.73122 23.4465 4.85959 23.4288 4.97812 23.3813L8.59375 21.9354L12.2104 23.3813C12.3963 23.4555 12.6037 23.4555 12.7896 23.3813L16.4062 21.9354L20.0219 23.3813C20.1404 23.4288 20.2688 23.4465 20.3958 23.4329C20.5227 23.4193 20.6444 23.3747 20.7502 23.3032C20.856 23.2316 20.9426 23.1353 21.0025 23.0225C21.0624 22.9097 21.0937 22.784 21.0938 22.6563V4.95521C21.0938 3.42396 19.976 2.08438 18.4167 1.90313C16.4527 1.67568 14.4771 1.56195 12.5 1.5625ZM16.1771 9.14583C16.3151 8.99774 16.3902 8.80185 16.3866 8.59946C16.3831 8.39706 16.3011 8.20395 16.1579 8.06081C16.0148 7.91767 15.8217 7.83568 15.6193 7.83211C15.4169 7.82854 15.221 7.90367 15.0729 8.04167L8.82292 14.2917C8.74616 14.3632 8.68459 14.4494 8.64189 14.5453C8.59919 14.6411 8.57623 14.7446 8.57438 14.8495C8.57253 14.9544 8.59183 15.0586 8.63112 15.1558C8.67041 15.2531 8.7289 15.3415 8.80309 15.4157C8.87727 15.4899 8.96564 15.5483 9.06292 15.5876C9.1602 15.6269 9.26439 15.6462 9.36929 15.6444C9.47419 15.6425 9.57764 15.6196 9.67348 15.5769C9.76931 15.5342 9.85556 15.4726 9.92708 15.3958L16.1771 9.14583ZM8.98438 9.375C8.98438 9.0642 9.10784 8.76613 9.32761 8.54636C9.54738 8.32659 9.84545 8.20313 10.1562 8.20313C10.4671 8.20313 10.7651 8.32659 10.9849 8.54636C11.2047 8.76613 11.3281 9.0642 11.3281 9.375C11.3281 9.6858 11.2047 9.98387 10.9849 10.2036C10.7651 10.4234 10.4671 10.5469 10.1562 10.5469C9.84545 10.5469 9.54738 10.4234 9.32761 10.2036C9.10784 9.98387 8.98438 9.6858 8.98438 9.375ZM14.8438 12.8906C14.5329 12.8906 14.2349 13.0141 14.0151 13.2339C13.7953 13.4536 13.6719 13.7517 13.6719 14.0625C13.6719 14.3733 13.7953 14.6714 14.0151 14.8911C14.2349 15.1109 14.5329 15.2344 14.8438 15.2344C15.1546 15.2344 15.4526 15.1109 15.6724 14.8911C15.8922 14.6714 16.0156 14.3733 16.0156 14.0625C16.0156 13.7517 15.8922 13.4536 15.6724 13.2339C15.4526 13.0141 15.1546 12.8906 14.8438 12.8906Z" fill="#AEACAC"/>
</svg>
