<svg width="25" height="25" viewBox="0 0 25 25" fill="none" xmlns="http://www.w3.org/2000/svg">
<path d="M19.1406 2.34375C18.0625 2.34375 17.1875 3.21875 17.1875 4.29687V20.7031C17.1875 21.7812 18.0625 22.6562 19.1406 22.6562H19.9219C21 22.6562 21.875 21.7812 21.875 20.7031V4.29687C21.875 3.21771 21 2.34375 19.9219 2.34375H19.1406ZM10.1562 8.98437C10.1562 7.90521 11.0312 7.03125 12.1094 7.03125H12.8906C13.9698 7.03125 14.8438 7.90625 14.8438 8.98437V20.7031C14.8438 21.7812 13.9688 22.6562 12.8906 22.6562H12.1094C11.5914 22.6562 11.0946 22.4505 10.7283 22.0842C10.362 21.7179 10.1562 21.2211 10.1562 20.7031V8.98437ZM3.125 13.6719C3.125 12.5927 4 11.7188 5.07812 11.7188H5.85938C6.93854 11.7188 7.8125 12.5938 7.8125 13.6719V20.7031C7.8125 21.7812 6.9375 22.6562 5.85938 22.6562H5.07812C4.56012 22.6562 4.06334 22.4505 3.69706 22.0842C3.33078 21.7179 3.125 21.2211 3.125 20.7031V13.6719Z" fill="#AEACAC"/>
</svg>
