<svg width="19" height="21" viewBox="0 0 19 21" fill="none" xmlns="http://www.w3.org/2000/svg">
<path d="M16.1406 0.34375C15.0625 0.34375 14.1875 1.21875 14.1875 2.29687V18.7031C14.1875 19.7812 15.0625 20.6562 16.1406 20.6562H16.9219C18 20.6562 18.875 19.7812 18.875 18.7031V2.29687C18.875 1.21771 18 0.34375 16.9219 0.34375H16.1406ZM7.15625 6.98437C7.15625 5.90521 8.03125 5.03125 9.10938 5.03125H9.89062C10.9698 5.03125 11.8438 5.90625 11.8438 6.98437V18.7031C11.8438 19.7812 10.9688 20.6562 9.89062 20.6562H9.10938C8.59137 20.6562 8.09459 20.4505 7.72831 20.0842C7.36202 19.7179 7.15625 19.2211 7.15625 18.7031V6.98437ZM0.125 11.6719C0.125 10.5927 1 9.71875 2.07812 9.71875H2.85938C3.93854 9.71875 4.8125 10.5938 4.8125 11.6719V18.7031C4.8125 19.7812 3.9375 20.6562 2.85938 20.6562H2.07812C1.56012 20.6562 1.06334 20.4505 0.697057 20.0842C0.330775 19.7179 0.125 19.2211 0.125 18.7031V11.6719Z" fill="#6162BE"/>
</svg>
