<svg width="25" height="25" viewBox="0 0 25 25" fill="none" xmlns="http://www.w3.org/2000/svg">
<path d="M11.9479 3.99963C12.0944 3.85333 12.2929 3.77115 12.5 3.77115C12.707 3.77115 12.9056 3.85333 13.052 3.99963L22.1041 13.0517C22.1756 13.1285 22.2619 13.19 22.3577 13.2327C22.4536 13.2754 22.557 13.2984 22.6619 13.3002C22.7668 13.3021 22.871 13.2828 22.9683 13.2435C23.0656 13.2042 23.1539 13.1457 23.2281 13.0715C23.3023 12.9974 23.3608 12.909 23.4001 12.8117C23.4394 12.7144 23.4587 12.6102 23.4568 12.5053C23.455 12.4004 23.432 12.297 23.3893 12.2012C23.3466 12.1053 23.2851 12.0191 23.2083 11.9475L14.1573 2.89546C13.9396 2.67782 13.6812 2.50518 13.3969 2.38739C13.1125 2.26961 12.8077 2.20898 12.5 2.20898C12.1922 2.20898 11.8874 2.26961 11.603 2.38739C11.3187 2.50518 11.0603 2.67782 10.8427 2.89546L1.79059 11.9475C1.64834 12.095 1.56969 12.2923 1.57157 12.4972C1.57344 12.702 1.6557 12.8979 1.80062 13.0427C1.94554 13.1875 2.14152 13.2696 2.34637 13.2713C2.55121 13.2729 2.74852 13.1941 2.8958 13.0517L11.9479 3.99963Z" fill="#AEACAC"/>
<path d="M12.5 5.65833L20.999 14.1573C21.0302 14.1885 21.0615 14.2177 21.0938 14.2469V20.7031C21.0938 21.7812 20.2188 22.6562 19.1406 22.6562H15.625C15.4178 22.6562 15.2191 22.5739 15.0726 22.4274C14.9261 22.2809 14.8438 22.0822 14.8438 21.875V17.1875C14.8438 16.9803 14.7614 16.7816 14.6149 16.6351C14.4684 16.4886 14.2697 16.4062 14.0625 16.4062H10.9375C10.7303 16.4062 10.5316 16.4886 10.3851 16.6351C10.2386 16.7816 10.1562 16.9803 10.1562 17.1875V21.875C10.1562 22.0822 10.0739 22.2809 9.92743 22.4274C9.78091 22.5739 9.5822 22.6562 9.375 22.6562H5.85937C5.34137 22.6562 4.84459 22.4505 4.47831 22.0842C4.11203 21.7179 3.90625 21.2211 3.90625 20.7031V14.2469C3.93866 14.2179 3.97027 14.188 4.00104 14.1573L12.5 5.65625V5.65833Z" fill="#AEACAC"/>
</svg>
