<svg width="25" height="25" viewBox="0 0 25 25" fill="none" xmlns="http://www.w3.org/2000/svg">
<path d="M1.5625 9.03125V17.9688C1.5625 18.7976 1.89174 19.5924 2.47779 20.1785C3.06384 20.7645 3.8587 21.0937 4.6875 21.0937H20.3125C21.1413 21.0937 21.9362 20.7645 22.5222 20.1785C23.1083 19.5924 23.4375 18.7976 23.4375 17.9688V9.03125L14.1375 14.7531C13.645 15.0561 13.0782 15.2165 12.5 15.2165C11.9218 15.2165 11.355 15.0561 10.8625 14.7531L1.5625 9.03125Z" fill="#6162BE"/>
<path d="M23.4375 7.19583V7.03125C23.4375 6.20245 23.1083 5.40759 22.5222 4.82154C21.9362 4.23549 21.1413 3.90625 20.3125 3.90625H4.6875C3.8587 3.90625 3.06384 4.23549 2.47779 4.82154C1.89174 5.40759 1.5625 6.20245 1.5625 7.03125V7.19583L11.6812 13.4229C11.9275 13.5744 12.2109 13.6546 12.5 13.6546C12.7891 13.6546 13.0725 13.5744 13.3187 13.4229L23.4375 7.19583Z" fill="#6162BE"/>
</svg>
