<svg width="25" height="25" viewBox="0 0 25 25" fill="none" xmlns="http://www.w3.org/2000/svg">
<path fill-rule="evenodd" clip-rule="evenodd" d="M12.4999 7.0317C12.4997 6.17753 12.6996 5.33519 13.0835 4.57217C13.4674 3.80915 14.0248 3.14668 14.7108 2.63783C15.3969 2.12898 16.1926 1.78792 17.0342 1.64196C17.8758 1.496 18.7399 1.54921 19.5572 1.79732C19.6864 1.83646 19.8033 1.9084 19.8964 2.00613C19.9895 2.10385 20.0557 2.22404 20.0885 2.35497C20.1213 2.48589 20.1197 2.62309 20.0837 2.75319C20.0478 2.88329 19.9787 3.00186 19.8833 3.09732L16.4249 6.55462C16.4906 7.04941 16.7124 7.52753 17.0927 7.90774C17.4729 8.28795 17.951 8.50982 18.4468 8.57441L21.9031 5.11712C21.9985 5.02169 22.1171 4.95263 22.2472 4.91666C22.3773 4.88069 22.5145 4.87905 22.6454 4.91188C22.7764 4.94472 22.8965 5.01092 22.9943 5.10403C23.092 5.19713 23.1639 5.31397 23.2031 5.44316C23.4627 6.29821 23.5088 7.20386 23.3374 8.08086C23.166 8.95787 22.7823 9.77951 22.2199 10.4739C21.6574 11.1683 20.9334 11.7143 20.1111 12.0641C19.2889 12.414 18.3934 12.557 17.5031 12.4807C16.4427 12.3911 15.5552 12.5848 15.0979 13.1411L7.64994 22.1879C7.34498 22.5564 6.96643 22.8572 6.53853 23.071C6.11063 23.2847 5.6428 23.4068 5.16501 23.4293C4.68721 23.4518 4.20998 23.3743 3.76387 23.2017C3.31776 23.0292 2.91261 22.7653 2.57434 22.4271C2.23608 22.089 1.97217 21.6839 1.7995 21.2378C1.62684 20.7917 1.54923 20.3145 1.57165 19.8367C1.59406 19.3589 1.716 18.891 1.92967 18.4631C2.14333 18.0351 2.44401 17.6565 2.81244 17.3515L11.8583 9.90253C12.4135 9.4442 12.6083 8.55774 12.5187 7.49732C12.5059 7.34245 12.4997 7.1871 12.4999 7.0317ZM4.28848 19.9223C4.28848 19.7151 4.37079 19.5164 4.51731 19.3699C4.66382 19.2234 4.86253 19.1411 5.06973 19.1411H5.07807C5.28527 19.1411 5.48398 19.2234 5.6305 19.3699C5.77701 19.5164 5.85932 19.7151 5.85932 19.9223V19.9307C5.85932 20.1379 5.77701 20.3366 5.6305 20.4831C5.48398 20.6296 5.28527 20.7119 5.07807 20.7119H5.06973C4.86253 20.7119 4.66382 20.6296 4.51731 20.4831C4.37079 20.3366 4.28848 20.1379 4.28848 19.9307V19.9223Z" fill="#AEACAC"/>
<path d="M10.4958 8.99978L8.20308 6.70811V5.07686C8.20308 4.94199 8.16815 4.80941 8.10171 4.69204C8.03526 4.57466 7.93956 4.47649 7.82392 4.40707L3.91767 2.06332C3.76826 1.97376 3.59321 1.9367 3.42033 1.95803C3.24745 1.97935 3.08666 2.05785 2.9635 2.18103L2.18225 2.96228C2.05907 3.08544 1.98057 3.24623 1.95925 3.41911C1.93792 3.59199 1.97498 3.76704 2.06454 3.91645L4.40829 7.8227C4.47771 7.93834 4.57588 8.03404 4.69326 8.10048C4.81063 8.16693 4.94321 8.20186 5.07808 8.20186H6.70725L8.85517 10.3498L10.4958 8.99874V8.99978Z" fill="#AEACAC"/>
<path fill-rule="evenodd" clip-rule="evenodd" d="M13.0791 18.0515L17.4364 22.4077C17.7629 22.7342 18.1504 22.9932 18.577 23.1698C19.0035 23.3465 19.4606 23.4375 19.9223 23.4375C20.384 23.4375 20.8412 23.3465 21.2677 23.1698C21.6942 22.9932 22.0818 22.7342 22.4083 22.4077C22.7347 22.0813 22.9937 21.6937 23.1704 21.2672C23.347 20.8407 23.438 20.3835 23.438 19.9218C23.438 19.4601 23.347 19.003 23.1704 18.5764C22.9937 18.1499 22.7347 17.7623 22.4083 17.4359L18.9645 13.9932C18.4366 14.068 17.902 14.083 17.3708 14.038C16.9604 14.0025 16.6604 14.0317 16.4676 14.0817C16.4067 14.0946 16.348 14.1167 16.2937 14.1473L13.0791 18.0515ZM16.6354 16.6348C16.7818 16.4885 16.9804 16.4064 17.1874 16.4064C17.3945 16.4064 17.593 16.4885 17.7395 16.6348L19.6926 18.589C19.7694 18.6605 19.831 18.7468 19.8737 18.8426C19.9164 18.9384 19.9393 19.0419 19.9412 19.1468C19.943 19.2517 19.9237 19.3559 19.8844 19.4532C19.8451 19.5504 19.7867 19.6388 19.7125 19.713C19.6383 19.7872 19.5499 19.8457 19.4526 19.885C19.3554 19.9243 19.2512 19.9435 19.1463 19.9417C19.0414 19.9398 18.9379 19.9169 18.8421 19.8742C18.7462 19.8315 18.66 19.7699 18.5885 19.6932L16.6354 17.74C16.489 17.5936 16.4069 17.395 16.4069 17.188C16.4069 16.9809 16.489 16.7824 16.6354 16.6359V16.6348Z" fill="#AEACAC"/>
</svg>
