<svg width="25" height="25" viewBox="0 0 25 25" fill="none" xmlns="http://www.w3.org/2000/svg">
<path fill-rule="evenodd" clip-rule="evenodd" d="M12.4999 7.03127C12.4997 6.17711 12.6996 5.33476 13.0835 4.57174C13.4674 3.80873 14.0248 3.14625 14.7108 2.6374C15.3969 2.12856 16.1926 1.78749 17.0342 1.64153C17.8758 1.49557 18.7399 1.54878 19.5572 1.7969C19.6864 1.83603 19.8033 1.90797 19.8964 2.0057C19.9895 2.10343 20.0557 2.22361 20.0885 2.35454C20.1213 2.48546 20.1197 2.62267 20.0837 2.75277C20.0478 2.88287 19.9787 3.00143 19.8833 3.0969L16.4249 6.55419C16.4906 7.04898 16.7124 7.52711 17.0927 7.90731C17.4729 8.28752 17.951 8.5094 18.4468 8.57398L21.9031 5.11669C21.9985 5.02126 22.1171 4.9522 22.2472 4.91623C22.3773 4.88027 22.5145 4.87862 22.6454 4.91146C22.7764 4.94429 22.8965 5.01049 22.9943 5.1036C23.092 5.19671 23.1639 5.31355 23.2031 5.44273C23.4627 6.29779 23.5088 7.20343 23.3374 8.08043C23.166 8.95744 22.7823 9.77908 22.2199 10.4735C21.6574 11.1679 20.9334 11.7139 20.1111 12.0637C19.2889 12.4135 18.3934 12.5566 17.5031 12.4802C16.4427 12.3906 15.5552 12.5844 15.0979 13.1406L7.64994 22.1875C7.34498 22.556 6.96643 22.8568 6.53853 23.0705C6.11063 23.2843 5.6428 23.4063 5.16501 23.4289C4.68721 23.4514 4.20998 23.3739 3.76387 23.2013C3.31776 23.0287 2.91261 22.7649 2.57434 22.4267C2.23608 22.0885 1.97217 21.6834 1.7995 21.2374C1.62684 20.7913 1.54923 20.3141 1.57165 19.8363C1.59406 19.3585 1.716 18.8906 1.92967 18.4627C2.14333 18.0347 2.44401 17.6561 2.81244 17.3511L11.8583 9.9021C12.4135 9.44377 12.6083 8.55731 12.5187 7.4969C12.5059 7.34202 12.4997 7.18667 12.4999 7.03127ZM4.28848 19.9219C4.28848 19.7147 4.37079 19.516 4.51731 19.3695C4.66382 19.223 4.86253 19.1406 5.06973 19.1406H5.07807C5.28527 19.1406 5.48398 19.223 5.6305 19.3695C5.77701 19.516 5.85932 19.7147 5.85932 19.9219V19.9302C5.85932 20.1374 5.77701 20.3361 5.6305 20.4827C5.48398 20.6292 5.28527 20.7115 5.07807 20.7115H5.06973C4.86253 20.7115 4.66382 20.6292 4.51731 20.4827C4.37079 20.3361 4.28848 20.1374 4.28848 19.9302V19.9219Z" fill="#6162BE"/>
<path d="M10.4958 9.00002L8.20308 6.70836V5.07711C8.20308 4.94223 8.16815 4.80965 8.10171 4.69228C8.03526 4.57491 7.93956 4.47673 7.82392 4.40732L3.91767 2.06357C3.76826 1.97401 3.59321 1.93694 3.42033 1.95827C3.24745 1.9796 3.08666 2.05809 2.9635 2.18127L2.18225 2.96252C2.05907 3.08568 1.98057 3.24648 1.95925 3.41936C1.93792 3.59224 1.97498 3.76729 2.06454 3.91669L4.40829 7.82294C4.47771 7.93858 4.57588 8.03428 4.69326 8.10073C4.81063 8.16717 4.94321 8.2021 5.07808 8.20211H6.70725L8.85517 10.35L10.4958 8.99898V9.00002Z" fill="#6162BE"/>
<path fill-rule="evenodd" clip-rule="evenodd" d="M13.0791 18.0511L17.4364 22.4073C17.7629 22.7338 18.1504 22.9927 18.577 23.1694C19.0035 23.3461 19.4606 23.437 19.9223 23.437C20.384 23.437 20.8412 23.3461 21.2677 23.1694C21.6942 22.9927 22.0818 22.7338 22.4083 22.4073C22.7347 22.0809 22.9937 21.6933 23.1704 21.2668C23.347 20.8402 23.438 20.3831 23.438 19.9214C23.438 19.4597 23.347 19.0025 23.1704 18.576C22.9937 18.1495 22.7347 17.7619 22.4083 17.4354L18.9645 13.9927C18.4366 14.0676 17.902 14.0826 17.3708 14.0375C16.9604 14.0021 16.6604 14.0313 16.4676 14.0813C16.4067 14.0942 16.348 14.1163 16.2937 14.1469L13.0791 18.0511ZM16.6354 16.6344C16.7818 16.4881 16.9804 16.4059 17.1874 16.4059C17.3945 16.4059 17.593 16.4881 17.7395 16.6344L19.6926 18.5886C19.7694 18.6601 19.831 18.7463 19.8737 18.8422C19.9164 18.938 19.9393 19.0415 19.9412 19.1464C19.943 19.2513 19.9237 19.3555 19.8844 19.4527C19.8451 19.55 19.7867 19.6384 19.7125 19.7126C19.6383 19.7868 19.5499 19.8452 19.4526 19.8845C19.3554 19.9238 19.2512 19.9431 19.1463 19.9413C19.0414 19.9394 18.9379 19.9165 18.8421 19.8738C18.7462 19.8311 18.66 19.7695 18.5885 19.6927L16.6354 17.7396C16.489 17.5931 16.4069 17.3946 16.4069 17.1875C16.4069 16.9805 16.489 16.7819 16.6354 16.6354V16.6344Z" fill="#6162BE"/>
</svg>
