<svg width="25" height="25" viewBox="0 0 25 25" fill="none" xmlns="http://www.w3.org/2000/svg">
<path fill-rule="evenodd" clip-rule="evenodd" d="M8.59375 7.03125C8.59375 5.99525 9.0053 5.00168 9.73786 4.26911C10.4704 3.53655 11.464 3.125 12.5 3.125C13.536 3.125 14.5296 3.53655 15.2621 4.26911C15.9947 5.00168 16.4062 5.99525 16.4062 7.03125C16.4062 8.06725 15.9947 9.06082 15.2621 9.79339C14.5296 10.5259 13.536 10.9375 12.5 10.9375C11.464 10.9375 10.4704 10.5259 9.73786 9.79339C9.0053 9.06082 8.59375 8.06725 8.59375 7.03125ZM16.4062 10.1562C16.4062 9.32745 16.7355 8.53259 17.3215 7.94654C17.9076 7.36049 18.7024 7.03125 19.5312 7.03125C20.3601 7.03125 21.1549 7.36049 21.741 7.94654C22.327 8.53259 22.6562 9.32745 22.6562 10.1562C22.6562 10.9851 22.327 11.7799 21.741 12.366C21.1549 12.952 20.3601 13.2812 19.5312 13.2812C18.7024 13.2812 17.9076 12.952 17.3215 12.366C16.7355 11.7799 16.4062 10.9851 16.4062 10.1562ZM2.34375 10.1562C2.34375 9.32745 2.67299 8.53259 3.25904 7.94654C3.84509 7.36049 4.63995 7.03125 5.46875 7.03125C6.29755 7.03125 7.09241 7.36049 7.67846 7.94654C8.26451 8.53259 8.59375 9.32745 8.59375 10.1562C8.59375 10.9851 8.26451 11.7799 7.67846 12.366C7.09241 12.952 6.29755 13.2812 5.46875 13.2812C4.63995 13.2812 3.84509 12.952 3.25904 12.366C2.67299 11.7799 2.34375 10.9851 2.34375 10.1562ZM6.57292 15.7469C7.20828 14.7511 8.08446 13.9315 9.12044 13.364C10.1564 12.7965 11.3188 12.4993 12.5 12.5C13.4894 12.4991 14.4678 12.7072 15.3712 13.1106C16.2747 13.514 17.0827 14.1037 17.7424 14.841C18.4022 15.5783 18.8987 16.4467 19.1996 17.3892C19.5005 18.3317 19.599 19.3272 19.4885 20.3104C19.475 20.4326 19.4329 20.5498 19.3656 20.6526C19.2982 20.7554 19.2076 20.8409 19.101 20.9021C17.0922 22.0547 14.816 22.6596 12.5 22.6562C10.099 22.6562 7.84375 22.0187 5.89896 20.9021C5.79239 20.8409 5.70175 20.7554 5.63442 20.6526C5.56709 20.5498 5.52496 20.4326 5.51146 20.3104C5.33652 18.7131 5.7109 17.1039 6.57292 15.7479V15.7469Z" fill="#6162BE"/>
<path d="M5.29383 14.8479C4.2665 16.4337 3.78785 18.3128 3.93133 20.1969C3.30582 20.102 2.69061 19.9486 2.09383 19.7385L1.97404 19.6969C1.86716 19.6589 1.77357 19.5908 1.70461 19.5008C1.63565 19.4107 1.59428 19.3026 1.5855 19.1896L1.57508 19.0635C1.53301 18.5406 1.5967 18.0145 1.76238 17.5167C1.92805 17.0189 2.19231 16.5596 2.53938 16.1661C2.88645 15.7727 3.30922 15.4532 3.78246 15.2267C4.2557 15.0002 4.76972 14.8714 5.29383 14.8479ZM21.0688 20.1969C21.2123 18.3128 20.7337 16.4337 19.7063 14.8479C20.2305 14.8714 20.7445 15.0002 21.2177 15.2267C21.691 15.4532 22.1137 15.7727 22.4608 16.1661C22.8079 16.5596 23.0721 17.0189 23.2378 17.5167C23.4035 18.0145 23.4672 18.5406 23.4251 19.0635L23.4147 19.1896C23.4057 19.3025 23.3642 19.4103 23.2953 19.5002C23.2263 19.59 23.1329 19.658 23.0261 19.6958L22.9063 19.7375C22.3157 19.9458 21.7022 20.101 21.0688 20.1969Z" fill="#6162BE"/>
</svg>
